<svg width="29" height="29" viewBox="0 0 29 29" fill="none" xmlns="http://www.w3.org/2000/svg">
<path d="M15.0591 2.56032C14.7533 2.42082 14.421 2.34863 14.0849 2.34863C13.7487 2.34863 13.4165 2.42082 13.1107 2.56032L3.05175 7.1379C2.84347 7.22974 2.66639 7.38016 2.54207 7.57084C2.41775 7.76152 2.35156 7.98424 2.35156 8.21187C2.35156 8.4395 2.41775 8.66222 2.54207 8.8529C2.66639 9.04358 2.84347 9.194 3.05175 9.28584L13.1224 13.8752C13.4282 14.0147 13.7605 14.0868 14.0966 14.0868C14.4328 14.0868 14.765 14.0147 15.0708 13.8752L25.1415 9.29758C25.3498 9.20574 25.5269 9.05532 25.6512 8.86464C25.7755 8.67395 25.8417 8.45124 25.8417 8.22361C25.8417 7.99598 25.7755 7.77326 25.6512 7.58258C25.5269 7.39189 25.3498 7.24148 25.1415 7.14964L15.0591 2.56032Z" stroke="white" stroke-width="2.34747" stroke-linecap="round" stroke-linejoin="round"/>
<path d="M2.34766 14.085C2.3471 14.3095 2.41094 14.5294 2.5316 14.7187C2.65227 14.908 2.82469 15.0588 3.02843 15.1531L13.1226 19.7424C13.4268 19.8801 13.7569 19.9514 14.0909 19.9514C14.4249 19.9514 14.755 19.8801 15.0592 19.7424L25.1299 15.1648C25.3377 15.0714 25.5138 14.9196 25.6367 14.7279C25.7597 14.5361 25.8242 14.3127 25.8224 14.085" stroke="white" stroke-width="2.34747" stroke-linecap="round" stroke-linejoin="round"/>
<path d="M2.34766 19.9541C2.3471 20.1786 2.41094 20.3985 2.5316 20.5879C2.65227 20.7772 2.82469 20.9279 3.02843 21.0222L13.1226 25.6115C13.4268 25.7493 13.7569 25.8205 14.0909 25.8205C14.4249 25.8205 14.755 25.7493 15.0592 25.6115L25.1299 21.0339C25.3377 20.9406 25.5138 20.7887 25.6367 20.597C25.7597 20.4053 25.8242 20.1819 25.8224 19.9541" stroke="white" stroke-width="2.34747" stroke-linecap="round" stroke-linejoin="round"/>
</svg>
