<svg width="29" height="29" viewBox="0 0 29 29" fill="none" xmlns="http://www.w3.org/2000/svg">
<path d="M16.557 6.5183C16.8828 6.68112 17.2421 6.76588 17.6063 6.76588C17.9706 6.76588 18.3298 6.68112 18.6557 6.5183L22.9504 4.37036C23.1294 4.28087 23.3284 4.23868 23.5284 4.24778C23.7284 4.25689 23.9227 4.317 24.0929 4.42239C24.2632 4.52778 24.4036 4.67496 24.5009 4.84993C24.5981 5.02489 24.6491 5.22183 24.6488 5.42203V20.4036C24.6486 20.6215 24.5879 20.8351 24.4732 21.0204C24.3586 21.2058 24.1946 21.3555 23.9997 21.4529L18.6557 24.1255C18.3298 24.2884 17.9706 24.3731 17.6063 24.3731C17.2421 24.3731 16.8828 24.2884 16.557 24.1255L11.6132 21.6536C11.2874 21.4908 10.9282 21.4061 10.5639 21.4061C10.1997 21.4061 9.84042 21.4908 9.51459 21.6536L5.21989 23.8016C5.04072 23.8911 4.84162 23.9333 4.64153 23.9241C4.44145 23.915 4.24704 23.8548 4.0768 23.7492C3.90657 23.6437 3.76617 23.4964 3.66896 23.3212C3.57176 23.1461 3.52099 22.949 3.52149 22.7487V7.76833C3.5216 7.55041 3.58239 7.33683 3.69702 7.1515C3.81166 6.96617 3.97563 6.81642 4.17056 6.71901L9.51459 4.04641C9.84042 3.88359 10.1997 3.79883 10.5639 3.79883C10.9282 3.79883 11.2874 3.88359 11.6132 4.04641L16.557 6.5183Z" stroke="white" stroke-width="2.34747" stroke-linecap="round" stroke-linejoin="round"/>
<path d="M17.6055 6.76465V24.3707" stroke="white" stroke-width="2.34747" stroke-linecap="round" stroke-linejoin="round"/>
<path d="M10.5645 3.79883V21.4049" stroke="white" stroke-width="2.34747" stroke-linecap="round" stroke-linejoin="round"/>
</svg>
