<svg width="29" height="29" viewBox="0 0 29 29" fill="none" xmlns="http://www.w3.org/2000/svg">
<path d="M14.3425 2.34863H13.826C13.2035 2.34863 12.6064 2.59596 12.1661 3.03619C11.7259 3.47643 11.4786 4.07352 11.4786 4.69611V4.90738C11.4782 5.31904 11.3695 5.72335 11.1635 6.07975C10.9575 6.43615 10.6613 6.73212 10.3048 6.93795L9.80013 7.23138C9.44327 7.43741 9.03846 7.54588 8.62639 7.54588C8.21432 7.54588 7.80952 7.43741 7.45265 7.23138L7.27659 7.13748C6.73792 6.82675 6.09797 6.74245 5.49721 6.9031C4.89645 7.06374 4.38398 7.45619 4.07229 7.99431L3.81407 8.44033C3.50334 8.979 3.41904 9.61895 3.57968 10.2197C3.74033 10.8205 4.13278 11.3329 4.6709 11.6446L4.84696 11.762C5.20175 11.9668 5.49676 12.2609 5.70267 12.6151C5.90858 12.9693 6.01822 13.3712 6.0207 13.7808V14.3794C6.02234 14.7931 5.91465 15.1998 5.70853 15.5585C5.50242 15.9171 5.20519 16.2149 4.84696 16.4217L4.6709 16.5274C4.13278 16.8391 3.74033 17.3515 3.57968 17.9523C3.41904 18.5531 3.50334 19.193 3.81407 19.7317L4.07229 20.1777C4.38398 20.7158 4.89645 21.1083 5.49721 21.2689C6.09797 21.4296 6.73792 21.3453 7.27659 21.0345L7.45265 20.9406C7.80952 20.7346 8.21432 20.6261 8.62639 20.6261C9.03846 20.6261 9.44327 20.7346 9.80013 20.9406L10.3048 21.2341C10.6613 21.4399 10.9575 21.7359 11.1635 22.0923C11.3695 22.4487 11.4782 22.853 11.4786 23.2646V23.4759C11.4786 24.0985 11.7259 24.6956 12.1661 25.1358C12.6064 25.5761 13.2035 25.8234 13.826 25.8234H14.3425C14.9651 25.8234 15.5622 25.5761 16.0024 25.1358C16.4426 24.6956 16.69 24.0985 16.69 23.4759V23.2646C16.6904 22.853 16.7991 22.4487 17.0051 22.0923C17.2111 21.7359 17.5072 21.4399 17.8637 21.2341L18.3684 20.9406C18.7253 20.7346 19.1301 20.6261 19.5421 20.6261C19.9542 20.6261 20.359 20.7346 20.7159 20.9406L20.8919 21.0345C21.4306 21.3453 22.0706 21.4296 22.6713 21.2689C23.2721 21.1083 23.7846 20.7158 24.0963 20.1777L24.3545 19.7199C24.6652 19.1813 24.7495 18.5413 24.5889 17.9406C24.4282 17.3398 24.0358 16.8273 23.4976 16.5156L23.3216 16.4217C22.9634 16.2149 22.6661 15.9171 22.46 15.5585C22.2539 15.1998 22.1462 14.7931 22.1478 14.3794V13.7926C22.1462 13.3789 22.2539 12.9722 22.46 12.6135C22.6661 12.2549 22.9634 11.9571 23.3216 11.7503L23.4976 11.6446C24.0358 11.3329 24.4282 10.8205 24.5889 10.2197C24.7495 9.61895 24.6652 8.979 24.3545 8.44033L24.0963 7.99431C23.7846 7.45619 23.2721 7.06374 22.6713 6.9031C22.0706 6.74245 21.4306 6.82675 20.8919 7.13748L20.7159 7.23138C20.359 7.43741 19.9542 7.54588 19.5421 7.54588C19.1301 7.54588 18.7253 7.43741 18.3684 7.23138L17.8637 6.93795C17.5072 6.73212 17.2111 6.43615 17.0051 6.07975C16.7991 5.72335 16.6904 5.31904 16.69 4.90738V4.69611C16.69 4.07352 16.4426 3.47643 16.0024 3.03619C15.5622 2.59596 14.9651 2.34863 14.3425 2.34863Z" stroke="white" stroke-width="2.34747" stroke-linecap="round" stroke-linejoin="round"/>
<path d="M14.0837 17.6069C16.0284 17.6069 17.6049 16.0304 17.6049 14.0857C17.6049 12.141 16.0284 10.5645 14.0837 10.5645C12.139 10.5645 10.5625 12.141 10.5625 14.0857C10.5625 16.0304 12.139 17.6069 14.0837 17.6069Z" stroke="white" stroke-width="2.34747" stroke-linecap="round" stroke-linejoin="round"/>
</svg>
