<svg width="35" height="35" viewBox="0 0 35 35" fill="none" xmlns="http://www.w3.org/2000/svg">
<path d="M0 8.7345C0 3.91057 3.91057 0 8.7345 0H26.2035C31.0274 0 34.938 3.91057 34.938 8.7345V26.2035C34.938 31.0274 31.0274 34.938 26.2035 34.938H8.7345C3.91057 34.938 0 31.0274 0 26.2035V8.7345Z" fill="url(#paint0_linear_57_2825)"/>
<g clip-path="url(#clip0_57_2825)">
<path d="M24.4063 13.9513V10.8597C24.9522 10.5425 25.3227 9.95777 25.3227 9.28072C25.3227 8.26797 24.5022 7.44741 23.4896 7.44741C22.4771 7.44741 21.6563 8.26797 21.6563 9.28072C21.6563 9.95777 22.0269 10.5425 22.5728 10.8597V13.9513C21.8764 14.0795 21.2292 14.3472 20.6646 14.7299L11.9821 9.76852C12.0106 9.6097 12.0312 9.44773 12.0312 9.28072C12.0312 7.76171 10.7996 6.53076 9.28121 6.53076C7.76303 6.53076 6.53125 7.76171 6.53125 9.28072C6.53125 10.7999 7.76303 12.0307 9.28121 12.0307C9.96686 12.0307 10.5845 11.7711 11.0663 11.3568L19.3199 16.0724C18.7702 16.8798 18.4477 17.8545 18.4477 18.9057C18.4477 19.9665 18.7773 20.9507 19.3367 21.7624L16.1669 24.9328C15.5566 24.7709 14.8797 24.9221 14.4018 25.4013C13.6857 26.1174 13.6857 27.2772 14.4018 27.9937C15.1179 28.7098 16.2779 28.7098 16.9942 27.9937C17.473 27.515 17.6244 26.8398 17.4633 26.2292L20.6329 23.0586C21.4448 23.6182 22.4286 23.9474 23.4896 23.9474C26.2746 23.9474 28.5313 21.6907 28.5313 18.9057C28.5313 16.4341 26.7526 14.3828 24.4063 13.9513ZM23.4896 22.1143C21.7174 22.1143 20.2812 20.6781 20.2812 18.9057C20.2812 17.1336 21.7174 15.6973 23.4896 15.6973C25.2621 15.6973 26.6978 17.1336 26.6978 18.9057C26.6978 20.6781 25.2621 22.1143 23.4896 22.1143Z" fill="white"/>
</g>
<defs>
<linearGradient id="paint0_linear_57_2825" x1="17.469" y1="0" x2="17.469" y2="34.938" gradientUnits="userSpaceOnUse">
<stop stop-color="#2563EB"/>
<stop offset="1" stop-color="#7C3AED"/>
</linearGradient>
<clipPath id="clip0_57_2825">
<rect width="22" height="22" fill="white" transform="translate(6.53125 6.53076)"/>
</clipPath>
</defs>
</svg>
