<svg width="15" height="16" viewBox="0 0 15 16" fill="none" xmlns="http://www.w3.org/2000/svg">
<path d="M1.45153 9.41987C1.31444 9.42033 1.18003 9.38189 1.06391 9.30901C0.947802 9.23613 0.854752 9.13179 0.795576 9.00813C0.736401 8.88447 0.713528 8.74656 0.729615 8.61041C0.745703 8.47427 0.80009 8.34548 0.886458 8.23902L8.05849 0.849652C8.11229 0.787554 8.1856 0.74559 8.26639 0.730649C8.34718 0.715708 8.43066 0.728678 8.5031 0.76743C8.57555 0.806182 8.63268 0.868413 8.66509 0.943909C8.69751 1.0194 8.7033 1.10368 8.68151 1.1829L7.29058 5.54407C7.24956 5.65384 7.23579 5.77193 7.25043 5.88819C7.26508 6.00445 7.30771 6.11543 7.37468 6.2116C7.44164 6.30777 7.53093 6.38625 7.63489 6.44033C7.73885 6.49441 7.85437 6.52246 7.97156 6.52208H13.0427C13.1798 6.52161 13.3142 6.56005 13.4303 6.63293C13.5464 6.70582 13.6395 6.81015 13.6986 6.93381C13.7578 7.05747 13.7807 7.19539 13.7646 7.33153C13.7485 7.46768 13.6941 7.59646 13.6078 7.70293L6.43573 15.0923C6.38193 15.1544 6.30862 15.1964 6.22782 15.2113C6.14703 15.2262 6.06356 15.2133 5.99111 15.1745C5.91866 15.1358 5.86154 15.0735 5.82912 14.998C5.7967 14.9225 5.79091 14.8383 5.8127 14.759L7.20364 10.3979C7.24466 10.2881 7.25843 10.17 7.24378 10.0538C7.22913 9.93749 7.1865 9.82651 7.11954 9.73035C7.05258 9.63418 6.96329 9.55569 6.85933 9.50161C6.75537 9.44754 6.63984 9.41949 6.52266 9.41987H1.45153Z" fill="url(#paint0_linear_57_2769)" stroke="url(#paint1_linear_57_2769)" stroke-width="1.4489" stroke-linecap="round" stroke-linejoin="round"/>
<defs>
<linearGradient id="paint0_linear_57_2769" x1="7.24711" y1="0.724609" x2="7.24711" y2="15.2173" gradientUnits="userSpaceOnUse">
<stop stop-color="#793FEE"/>
<stop offset="1" stop-color="#26FDFE"/>
</linearGradient>
<linearGradient id="paint1_linear_57_2769" x1="7.24711" y1="0.724609" x2="7.24711" y2="15.2173" gradientUnits="userSpaceOnUse">
<stop stop-color="#793FEE"/>
<stop offset="1" stop-color="#26FDFE"/>
</linearGradient>
</defs>
</svg>
