<svg width="35" height="35" viewBox="0 0 35 35" fill="none" xmlns="http://www.w3.org/2000/svg">
<path d="M0 8.7345C0 3.91057 3.91057 0 8.7345 0H26.2035C31.0274 0 34.938 3.91057 34.938 8.7345V26.2035C34.938 31.0274 31.0274 34.938 26.2035 34.938H8.7345C3.91057 34.938 0 31.0274 0 26.2035V8.7345Z" fill="url(#paint0_linear_57_2807)"/>
<g clip-path="url(#clip0_57_2807)">
<path d="M22.7586 16.927C22.9192 16.9078 23.0731 16.9071 23.2144 16.9271C23.2963 16.7394 23.3103 16.4159 23.2367 16.0637C23.1273 15.5401 22.9793 15.2233 22.6733 15.2726C22.3674 15.3219 22.3561 15.7012 22.4655 16.2248C22.527 16.5193 22.6366 16.7711 22.7586 16.927Z" fill="white"/>
<path d="M20.1324 17.3412C20.3514 17.4372 20.4858 17.5009 20.5385 17.4453C20.5724 17.4105 20.5622 17.3443 20.51 17.259C20.402 17.0826 20.1797 16.9037 19.9439 16.8033C19.4617 16.5958 18.8867 16.6648 18.4431 16.9836C18.2967 17.0909 18.1578 17.2395 18.1777 17.3298C18.1841 17.359 18.206 17.3809 18.2574 17.3881C18.3782 17.402 18.8002 17.1886 19.2862 17.1588C19.6293 17.1378 19.9135 17.2451 20.1324 17.3412Z" fill="white"/>
<path d="M19.692 17.5924C19.407 17.6374 19.2497 17.7314 19.1488 17.8188C19.0626 17.8942 19.0093 17.9774 19.0098 18.0359C19.01 18.0638 19.0221 18.0798 19.0316 18.0879C19.0445 18.0993 19.06 18.1057 19.0784 18.1057C19.1428 18.1057 19.287 18.0479 19.287 18.0479C19.6838 17.9059 19.9455 17.923 20.2049 17.9526C20.3482 17.9687 20.416 17.9776 20.4474 17.9285C20.4567 17.9144 20.468 17.8838 20.4393 17.8373C20.3726 17.7289 20.0847 17.5458 19.692 17.5924Z" fill="white"/>
<path d="M21.8719 18.5146C22.0654 18.6097 22.2786 18.5723 22.348 18.4312C22.4173 18.29 22.3166 18.0984 22.1231 18.0033C21.9294 17.9082 21.7163 17.9455 21.6469 18.0867C21.5776 18.2279 21.6783 18.4194 21.8719 18.5146Z" fill="white"/>
<path d="M23.1157 17.4273C22.9584 17.4246 22.8279 17.5973 22.8243 17.813C22.8206 18.0286 22.9452 18.2056 23.1024 18.2083C23.2597 18.2109 23.3902 18.0382 23.3938 17.8226C23.3975 17.6069 23.2729 17.4299 23.1157 17.4273Z" fill="white"/>
<path d="M12.5525 21.3161C12.5134 21.2671 12.4491 21.282 12.3869 21.2965C12.3434 21.3066 12.2942 21.3181 12.2402 21.3171C12.1245 21.3149 12.0266 21.2655 11.9716 21.181C11.8999 21.071 11.9041 20.9069 11.9832 20.7191C11.9938 20.6938 12.0064 20.6657 12.02 20.635C12.1462 20.352 12.3573 19.8784 12.1203 19.4271C11.9419 19.0874 11.651 18.8759 11.3012 18.8315C10.9653 18.7889 10.6196 18.9135 10.3991 19.1567C10.0512 19.5406 9.99685 20.0628 10.0641 20.2474C10.0888 20.315 10.1273 20.3337 10.1553 20.3375C10.2145 20.3455 10.302 20.3024 10.3569 20.1549C10.3608 20.1442 10.3661 20.1278 10.3726 20.1069C10.397 20.0289 10.4425 19.8837 10.517 19.7673C10.6069 19.6269 10.7468 19.5303 10.9111 19.4951C11.0784 19.4593 11.2495 19.4912 11.3926 19.5849C11.6363 19.7444 11.7302 20.0431 11.6261 20.328C11.5723 20.4754 11.485 20.7572 11.5042 20.9887C11.5432 21.4573 11.8314 21.6455 12.0904 21.6655C12.3422 21.675 12.5181 21.5337 12.5627 21.4303C12.5889 21.3692 12.5668 21.332 12.5525 21.3161Z" fill="white"/>
<path d="M27.0843 20.4589C27.0747 20.425 27.0124 20.1968 26.9265 19.9218C26.8407 19.6468 26.752 19.4532 26.752 19.4532C27.096 18.938 27.1022 18.4773 27.0564 18.2165C27.0075 17.893 26.8729 17.6174 26.6015 17.3325C26.3301 17.0476 25.7751 16.7558 24.9951 16.5368C24.9058 16.5118 24.6116 16.4311 24.5857 16.4232C24.5838 16.4062 24.5643 15.4582 24.5465 15.0513C24.5335 14.7571 24.5083 14.2979 24.3658 13.8454C24.1959 13.2332 23.9 12.6973 23.5307 12.3546C24.55 11.298 25.1862 10.1341 25.1847 9.13554C25.1818 7.21535 22.8235 6.63433 19.9174 7.83771C19.9143 7.839 19.3061 8.09694 19.3017 8.09913C19.2989 8.09647 18.1885 7.00691 18.1718 6.99235C14.8584 4.10231 4.49875 15.6174 7.81091 18.414L8.5348 19.0272C8.34703 19.5137 8.27325 20.0709 8.33354 20.6702C8.41092 21.4399 8.80795 22.1777 9.45141 22.7478C10.0623 23.289 10.8655 23.6316 11.6449 23.6309C12.9338 26.6012 15.8788 28.4234 19.3319 28.5259C23.0359 28.6359 26.1452 26.8979 27.448 23.7757C27.5332 23.5566 27.8949 22.5693 27.8949 21.6978C27.8948 20.8219 27.3997 20.4589 27.0843 20.4589ZM11.9296 22.7966C11.8171 22.8158 11.7023 22.8235 11.5866 22.8207C10.4678 22.7907 9.25943 21.7835 9.13933 20.5891C9.0066 19.2689 9.68117 18.2528 10.8756 18.0119C11.0184 17.9831 11.1909 17.9665 11.377 17.9761C12.0462 18.0128 13.0323 18.5267 13.2576 19.9845C13.4571 21.2757 13.1402 22.5902 11.9296 22.7966ZM10.6803 17.2222C9.93674 17.3667 9.28143 17.7881 8.8807 18.3703C8.64115 18.1705 8.19496 17.7838 8.11616 17.6331C7.4764 16.4183 8.8144 14.0564 9.74906 12.7226C12.059 9.42614 15.6768 6.93112 17.3516 7.38375C17.6239 7.46079 18.5256 8.50635 18.5256 8.50635C18.5256 8.50635 16.8515 9.4352 15.299 10.73C13.2071 12.3408 11.6269 14.6818 10.6803 17.2222ZM14.9466 12.7091C15.7677 11.7601 16.7787 10.9351 17.6843 10.4718C17.7156 10.4558 17.7488 10.4898 17.7318 10.5206C17.6599 10.6508 17.5215 10.9296 17.4776 11.1411C17.4708 11.1741 17.5067 11.1989 17.5344 11.18C18.0978 10.7959 19.0779 10.3844 19.9375 10.3315C19.9745 10.3293 19.9923 10.3766 19.9629 10.3992C19.8322 10.4994 19.6892 10.6382 19.5848 10.7786C19.567 10.8025 19.5837 10.8368 19.6135 10.8371C20.2171 10.8413 21.0681 11.0526 21.6227 11.3636C21.6602 11.3847 21.6335 11.4574 21.5915 11.4478C20.7524 11.2554 19.3787 11.1095 17.9518 11.4575C16.6779 11.7682 15.7057 12.248 14.9964 12.7639C14.9606 12.7899 14.9176 12.7426 14.9466 12.7091ZM27.1222 21.9929C26.9613 22.9674 26.5471 23.7583 25.8509 24.4859C25.4272 24.9421 24.9127 25.3387 24.3241 25.627C24.0115 25.7912 23.6786 25.9333 23.3271 26.0481C20.7027 26.9053 18.0164 25.9629 17.1504 23.9393C17.0813 23.7872 17.0229 23.628 16.9768 23.4614C16.6077 22.1278 16.9211 20.5279 17.9004 19.5209C17.9004 19.5208 17.9002 19.5205 17.9003 19.5204C17.9607 19.4562 18.0223 19.3808 18.0223 19.2857C18.0223 19.2062 17.9717 19.1224 17.9279 19.063C17.5854 18.566 16.3986 17.7192 16.6368 16.0804C16.8078 14.9032 17.8374 14.074 18.7974 14.1231C18.8785 14.1273 18.9597 14.1323 19.0407 14.1371C19.4567 14.1617 19.8196 14.215 20.1621 14.2294C20.7352 14.2542 21.2506 14.1708 21.861 13.6622C22.067 13.4906 22.2321 13.3418 22.5115 13.2944C22.5408 13.2895 22.6138 13.2632 22.7598 13.2702C22.9088 13.2781 23.0507 13.3191 23.1782 13.4039C23.6676 13.7295 23.737 14.5183 23.7624 15.0953C23.7768 15.4246 23.8167 16.2215 23.8303 16.4502C23.8614 16.9733 23.9989 17.047 24.2771 17.1386C24.4335 17.1901 24.5788 17.2285 24.7928 17.2886C25.4406 17.4704 25.8247 17.655 26.0668 17.892C26.2112 18.0401 26.2783 18.1975 26.299 18.3477C26.3755 18.9049 25.8664 19.5933 24.5188 20.2188C23.0458 20.9025 21.2588 21.0756 20.0241 20.9381C19.9294 20.9275 19.5927 20.8893 19.5915 20.8892C18.6039 20.7561 18.0405 22.0326 18.6332 22.907C19.0153 23.4706 20.0558 23.8374 21.0969 23.8376C23.4839 23.8379 25.3187 22.8186 26.0011 21.9382C26.0215 21.9118 26.0236 21.9089 26.0557 21.8603C26.0893 21.8097 26.0616 21.7818 26.0198 21.8105C25.4622 22.192 22.9854 23.7067 20.3363 23.251C20.3363 23.251 20.0144 23.1981 19.7205 23.0837C19.487 22.9929 18.9983 22.7681 18.9389 22.2667C21.0769 22.9279 22.423 22.3028 22.423 22.3028C22.4473 22.2926 22.4641 22.2648 22.4613 22.2372C22.4578 22.2033 22.4275 22.1786 22.3937 22.1821C22.3937 22.1821 20.6412 22.4415 18.9856 21.8354C19.1659 21.2493 19.6454 21.461 20.3702 21.5194C21.6765 21.5973 22.8473 21.4065 23.7126 21.1581C24.4624 20.9429 25.4472 20.5187 26.2121 19.915C26.4701 20.4817 26.5612 21.1054 26.5612 21.1054C26.5612 21.1054 26.7609 21.0696 26.9278 21.1724C27.0855 21.2696 27.2012 21.4714 27.1222 21.9929Z" fill="white"/>
</g>
<defs>
<linearGradient id="paint0_linear_57_2807" x1="17.469" y1="0" x2="17.469" y2="34.938" gradientUnits="userSpaceOnUse">
<stop stop-color="#2563EB"/>
<stop offset="1" stop-color="#7C3AED"/>
</linearGradient>
<clipPath id="clip0_57_2807">
<rect width="22" height="22" fill="white" transform="translate(6.53125 6.53076)"/>
</clipPath>
</defs>
</svg>
