<svg width="35" height="35" viewBox="0 0 35 35" fill="none" xmlns="http://www.w3.org/2000/svg">
<path d="M0 8.7345C0 3.91057 3.91057 0 8.7345 0H26.2035C31.0274 0 34.938 3.91057 34.938 8.7345V26.2035C34.938 31.0274 31.0274 34.938 26.2035 34.938H8.7345C3.91057 34.938 0 31.0274 0 26.2035V8.7345Z" fill="url(#paint0_linear_57_2784)"/>
<g clip-path="url(#clip0_57_2784)">
<path d="M21.0738 9.09731C21.0723 9.09774 20.8277 9.17345 20.4149 9.30124C20.3461 9.0775 20.2445 8.80263 20.0997 8.52651C19.6328 7.63594 18.9494 7.16453 18.1232 7.16333C18.1223 7.16333 18.1214 7.16333 18.1204 7.16333C18.0632 7.16333 18.0061 7.16874 17.949 7.1739C17.9247 7.14468 17.9002 7.11567 17.8743 7.088C17.5147 6.70304 17.0528 6.51553 16.5001 6.53173C15.433 6.56232 14.3708 7.33284 13.5093 8.70122C12.9028 9.66432 12.4421 10.8742 12.311 11.8106C11.0861 12.1899 10.229 12.4553 10.2105 12.4612C9.59214 12.6552 9.57271 12.6746 9.49163 13.2572C9.43023 13.6982 7.8125 26.2094 7.8125 26.2094L21.2362 28.5308V9.06985C21.17 9.07406 21.1109 9.08639 21.0738 9.09731ZM17.9741 10.057C17.2637 10.277 16.4881 10.5171 15.7102 10.758C15.9293 9.92016 16.3439 9.08601 16.8533 8.53944C17.0428 8.33616 17.308 8.10933 17.6219 7.97978C17.9172 8.59522 17.9812 9.46765 17.9741 10.057ZM16.5205 7.24166C16.7711 7.23642 16.9821 7.29137 17.1622 7.40997C16.8741 7.55958 16.5952 7.77473 16.3338 8.05514C15.656 8.78217 15.1369 9.91101 14.9299 10.9996C14.2838 11.1997 13.6519 11.3953 13.0706 11.5754C13.4373 9.86095 14.8738 7.28901 16.5205 7.24166ZM14.4444 17.0053C14.5165 18.1473 17.5207 18.3968 17.6896 21.0715C17.8225 23.1759 16.5735 24.6153 14.7737 24.729C12.614 24.8654 11.4248 23.591 11.4248 23.591L11.8824 21.644C11.8824 21.644 13.0791 22.547 14.0372 22.4865C14.6629 22.4469 14.8866 21.938 14.8638 21.5781C14.7698 20.0884 12.3234 20.1762 12.1689 17.7284C12.0388 15.6684 13.3915 13.5814 16.3764 13.393C17.5265 13.3204 18.1154 13.614 18.1154 13.614L17.4328 16.1674C17.4328 16.1674 16.6714 15.8207 15.7688 15.8777C14.4452 15.9612 14.4312 16.7961 14.4444 17.0053ZM18.6834 9.8374C18.6755 9.29711 18.611 8.54559 18.3593 7.89594C19.1688 8.04934 19.5675 8.96535 19.7357 9.51157C19.4237 9.60816 19.0683 9.71816 18.6834 9.8374Z" fill="white"/>
<path d="M21.6797 28.4778L27.2485 27.0936C27.2485 27.0936 24.8509 10.8829 24.8357 10.7717C24.8204 10.6605 24.723 10.599 24.6427 10.5923C24.5624 10.5856 22.9947 10.5617 22.9947 10.5617C22.9947 10.5617 22.0388 9.63341 21.6797 9.28223V28.4778H21.6797Z" fill="white"/>
</g>
<defs>
<linearGradient id="paint0_linear_57_2784" x1="17.469" y1="0" x2="17.469" y2="34.938" gradientUnits="userSpaceOnUse">
<stop stop-color="#2563EB"/>
<stop offset="1" stop-color="#7C3AED"/>
</linearGradient>
<clipPath id="clip0_57_2784">
<rect width="22" height="22" fill="white" transform="translate(6.53125 6.53076)"/>
</clipPath>
</defs>
</svg>
