<svg width="35" height="35" viewBox="0 0 35 35" fill="none" xmlns="http://www.w3.org/2000/svg">
<path d="M0 8.7345C0 3.91057 3.91057 0 8.7345 0H26.2035C31.0274 0 34.938 3.91057 34.938 8.7345V26.2035C34.938 31.0274 31.0274 34.938 26.2035 34.938H8.7345C3.91057 34.938 0 31.0274 0 26.2035V8.7345Z" fill="url(#paint0_linear_57_2846)"/>
<path d="M19.8236 17.5354C19.8231 18.2062 19.704 18.8716 19.4716 19.5008C18.8538 19.7373 18.1979 19.8584 17.5365 19.8583H17.5273C16.8662 19.8583 16.2106 19.7372 15.5932 19.5008C15.3601 18.8717 15.2403 18.2063 15.2393 17.5354V17.5263C15.2393 16.8342 15.3649 16.1724 15.5913 15.56C16.2093 15.3234 16.8655 15.2022 17.5273 15.2025H17.5347C18.2157 15.2025 18.8684 15.3299 19.4707 15.56C19.7035 16.1889 19.8227 16.8544 19.8227 17.5263L19.8236 17.5354ZM26.5712 15.9789H21.2206L25.0037 12.1363C24.4109 11.2896 23.6806 10.5482 22.8431 9.94269L19.0591 13.7854V8.35044C18.5563 8.26511 18.0473 8.22188 17.5374 8.22119H17.5273C17.0079 8.22241 16.5003 8.2655 16.0047 8.35044V13.7854L12.2198 9.94269C11.8024 10.244 11.4125 10.5789 11.0502 10.9474L11.0483 10.9492C10.6865 11.3165 10.3572 11.7125 10.0602 12.1372L13.8442 15.9789H8.49357C8.49357 15.9789 8.36523 17.0001 8.36523 17.5281V17.5345C8.36585 18.0625 8.40862 18.5786 8.49357 19.0828H13.8442L10.0592 22.9245C10.6535 23.7705 11.3839 24.5121 12.2207 25.119L16.0047 21.2773V26.7122C16.5072 26.7972 17.0159 26.8401 17.5255 26.8405H17.5383C18.048 26.8405 18.5552 26.7977 19.06 26.7122V21.2764L22.8431 25.1199C23.2605 24.8174 23.6507 24.4826 24.0137 24.1153H24.0146C24.3763 23.7462 24.706 23.3499 25.0037 22.9264L21.2197 19.0828H26.5721C26.6558 18.5792 26.698 18.0644 26.6986 17.5382V17.5244C26.6986 17.0056 26.6564 16.4907 26.5721 15.9799" fill="white"/>
<defs>
<linearGradient id="paint0_linear_57_2846" x1="17.469" y1="0" x2="17.469" y2="34.938" gradientUnits="userSpaceOnUse">
<stop stop-color="#2563EB"/>
<stop offset="1" stop-color="#7C3AED"/>
</linearGradient>
</defs>
</svg>
