<svg width="19" height="19" viewBox="0 0 19 19" fill="none" xmlns="http://www.w3.org/2000/svg">
<g clip-path="url(#clip0_57_3698)">
<path d="M17.1223 7.85432C17.481 9.61465 17.2254 11.4448 16.3981 13.0394C15.5707 14.6341 14.2217 15.897 12.576 16.6174C10.9303 17.3378 9.08729 17.4723 7.35442 16.9983C5.62155 16.5244 4.10352 15.4707 3.0535 14.013C2.00347 12.5553 1.48491 10.7817 1.5843 8.98797C1.68369 7.19421 2.39501 5.48873 3.59965 4.15595C4.80429 2.82318 6.42943 1.94366 8.20405 1.66407C9.97867 1.38448 11.7955 1.72172 13.3516 2.61956" stroke="url(#paint0_linear_57_3698)" stroke-width="1.57082" stroke-linecap="round" stroke-linejoin="round"/>
<path d="M7.06836 8.63947L9.42459 10.9957L17.2787 3.1416" stroke="url(#paint1_linear_57_3698)" stroke-width="1.57082" stroke-linecap="round" stroke-linejoin="round"/>
</g>
<defs>
<linearGradient id="paint0_linear_57_3698" x1="9.42637" y1="1.56836" x2="9.42637" y2="17.2766" gradientUnits="userSpaceOnUse">
<stop stop-color="#793FEE"/>
<stop offset="1" stop-color="#26FDFE"/>
</linearGradient>
<linearGradient id="paint1_linear_57_3698" x1="12.1735" y1="3.1416" x2="12.1735" y2="10.9957" gradientUnits="userSpaceOnUse">
<stop stop-color="#793FEE"/>
<stop offset="1" stop-color="#26FDFE"/>
</linearGradient>
<clipPath id="clip0_57_3698">
<rect width="18.8498" height="18.8498" fill="white"/>
</clipPath>
</defs>
</svg>
