<svg width="15" height="15" viewBox="0 0 15 15" fill="none" xmlns="http://www.w3.org/2000/svg">
<g clip-path="url(#clip0_57_3682)">
<path d="M10 8.12529L13.2644 10.3015C13.3114 10.3329 13.3661 10.3508 13.4226 10.3535C13.479 10.3562 13.5352 10.3436 13.585 10.3169C13.6348 10.2902 13.6765 10.2505 13.7056 10.202C13.7346 10.1535 13.75 10.0981 13.75 10.0415V4.91904C13.75 4.86405 13.7355 4.81004 13.708 4.76244C13.6804 4.71485 13.6408 4.67536 13.5932 4.64797C13.5455 4.62058 13.4914 4.60626 13.4364 4.60645C13.3815 4.60663 13.3275 4.62133 13.28 4.64904L10 6.56279" stroke="#B9B9B9" stroke-width="1.25" stroke-linecap="round" stroke-linejoin="round"/>
<path d="M8.75 3.75H2.5C1.80964 3.75 1.25 4.30964 1.25 5V10C1.25 10.6904 1.80964 11.25 2.5 11.25H8.75C9.44036 11.25 10 10.6904 10 10V5C10 4.30964 9.44036 3.75 8.75 3.75Z" stroke="#B9B9B9" stroke-width="1.25" stroke-linecap="round" stroke-linejoin="round"/>
</g>
<defs>
<clipPath id="clip0_57_3682">
<rect width="15" height="15" fill="white"/>
</clipPath>
</defs>
</svg>
