<svg width="171" height="22" viewBox="0 0 171 22" fill="none" xmlns="http://www.w3.org/2000/svg">
<g clip-path="url(#clip0_102_125)">
<path d="M115.175 8.8458L114.713 8.86313C114.127 6.61709 113.471 4.38837 112.986 2.12212C112.729 0.92981 112.12 0.268701 110.974 0.291796C109.733 0.314892 109.482 1.20407 109.49 2.30977C109.528 6.63729 109.513 10.9648 109.516 15.2923C109.516 16.8802 109.407 18.4766 109.571 20.0471C109.626 20.5755 110.356 21.3925 110.821 21.4213C111.329 21.4531 111.953 20.7891 112.389 20.3041C112.585 20.0847 112.464 19.565 112.458 19.1811C112.447 17.7376 112.383 16.2941 112.435 14.8564C112.447 14.5273 112.842 14.2097 113.061 13.8893C113.365 14.1376 113.844 14.3339 113.939 14.6457C114.193 15.4656 114.234 16.349 114.444 17.1833C114.736 18.341 114.97 19.5506 115.504 20.5957C115.749 21.0749 116.731 21.5455 117.227 21.4213C117.695 21.303 118.272 20.4022 118.278 19.8393C118.347 13.8777 118.316 7.91621 118.307 1.95179C118.307 1.0424 118.01 0.300457 116.95 0.277361C115.853 0.254266 115.602 1.02508 115.59 1.92581C115.567 3.60889 115.599 5.29198 115.538 6.97218C115.515 7.59865 115.307 8.21934 115.18 8.84292L115.175 8.8458Z" fill="white"/>
<path d="M41.4423 12.9623L41.8002 12.9277C41.8926 13.0836 42.0254 13.2279 42.0716 13.3983C42.6577 15.5173 43.2697 17.6334 43.7922 19.7669C44.078 20.9274 44.7593 21.5539 45.9026 21.5135C47.1353 21.4702 47.2537 20.5319 47.2537 19.5417C47.2421 13.7245 47.2421 7.91019 47.2537 2.093C47.2537 1.11433 47.0054 0.288664 45.8795 0.300212C44.7334 0.314646 44.3494 1.15475 44.3696 2.17961C44.3956 3.47585 44.5053 4.77208 44.5255 6.06832C44.537 6.87666 44.4447 7.68789 44.3985 8.49624L43.7114 8.60017C43.235 7.24619 42.7154 5.90665 42.2997 4.53535C42.037 3.66927 42.0312 2.71658 41.7194 1.87071C41.3816 0.949773 40.7783 0.086578 39.609 0.277116C38.3734 0.479202 38.4802 1.53871 38.4802 2.44521C38.4716 7.68501 38.4802 12.9248 38.4802 18.1646C38.4802 18.6929 38.4658 19.2241 38.4831 19.7495C38.5178 20.6676 38.665 21.5741 39.8602 21.5308C41.0265 21.4875 41.1651 20.5896 41.1651 19.6687C41.1651 18.3234 41.1131 16.9752 41.1536 15.6328C41.1824 14.7407 41.3383 13.8515 41.4365 12.9594L41.4423 12.9623Z" fill="white"/>
<path d="M168.066 2.64166C167.884 2.34431 167.645 2.09315 167.567 1.79868C167.258 0.666997 166.415 0.337886 165.387 0.259938C163.291 0.0982695 161.77 1.36275 161.643 3.51641C161.539 5.29188 161.596 7.07601 161.585 8.85725C161.573 10.4768 162.258 11.3718 163.822 11.9434C164.763 12.2869 165.736 12.6247 166.562 13.1703C167.038 13.485 167.414 14.1692 167.535 14.7495C167.699 15.5319 167.691 16.3979 167.535 17.189C167.434 17.7028 166.845 18.5834 166.654 18.5372C165.999 18.3813 165.283 18.006 164.867 17.4892C164.564 17.1139 164.769 16.3662 164.628 15.8177C164.478 15.2374 164.316 14.5445 163.912 14.175C163.525 13.8228 162.769 13.612 162.272 13.7362C161.946 13.817 161.631 14.5936 161.602 15.0786C161.513 16.5654 161.591 18.0608 161.55 19.5534C161.513 20.9016 162.232 21.5136 163.464 21.5627C164.711 21.6118 165.967 21.5944 167.214 21.5338C169.365 21.4328 170.358 20.4454 170.436 18.2802C170.5 16.5509 170.465 14.8159 170.474 13.0837C170.482 11.1755 169.922 10.4047 168.109 9.82726C164.709 8.74466 164.53 8.49349 164.633 4.94256C164.636 4.79821 164.587 4.62211 164.654 4.51529C164.931 4.06781 165.341 3.23926 165.523 3.28257C166.195 3.44712 166.94 3.77912 167.37 4.29011C167.668 4.64232 167.419 5.41024 167.544 5.96453C167.673 6.54481 167.867 7.15973 168.21 7.6303C168.41 7.90456 168.955 7.92188 169.345 8.05757C169.455 7.67649 169.689 7.28098 169.648 6.91434C169.587 6.35427 169.345 5.81441 169.163 5.26878C168.669 3.79644 168.978 3.3201 170.557 3.23926C170.713 2.28946 170.999 1.15778 169.839 0.759379C168.213 0.199312 169.102 2.20285 168.06 2.64455L168.066 2.64166Z" fill="white"/>
<path d="M8.92639 3.77035C8.9466 2.55206 9.59327 1.33666 8.26239 0.759272C6.70055 0.080841 7.41363 2.20274 6.29061 2.42215C6.12317 2.11902 5.98748 1.71196 5.72188 1.42904C5.34947 1.03353 4.92797 0.557186 4.44008 0.412839C2.08433 -0.291575 0.164518 1.09993 0.0836839 3.54228C0.0259451 5.27156 0.0779101 7.00661 0.0461537 8.73878C0.0115104 10.6211 0.574464 11.4352 2.35859 11.9895C5.8287 13.0692 6.14626 13.5167 5.94129 17.082C5.94129 17.1311 5.95572 17.1917 5.93551 17.2235C5.61795 17.6941 5.25131 18.5717 4.98571 18.5428C4.37079 18.4764 3.65483 18.0867 3.26221 17.5988C2.95619 17.2206 3.14096 16.4787 2.98217 15.9359C2.78875 15.2719 2.59244 14.53 2.15362 14.045C1.86204 13.7245 1.07968 13.6033 0.632203 13.7505C0.329074 13.8487 0.080797 14.556 0.0577015 15.0034C-0.017359 16.5393 0.0403798 18.0809 0.00284958 19.6197C-0.0260198 20.887 0.643751 21.5048 1.81585 21.5597C3.06301 21.6203 4.31594 21.5914 5.56599 21.5337C7.77161 21.4298 8.77338 20.3934 8.834 18.1646C8.8802 16.5306 8.834 14.8937 8.89463 13.2597C8.9668 11.3543 8.38075 10.4854 6.56776 9.84159C5.66703 9.52403 4.75476 9.18337 3.9493 8.6897C3.52203 8.42699 3.11497 7.84094 3.04569 7.35016C2.90711 6.35994 2.95908 5.33219 3.01682 4.32753C3.06878 3.43258 3.574 3.09192 4.49493 3.25936C5.56887 3.45568 5.86912 4.12833 5.90376 5.10701C5.92974 5.81142 5.91531 6.60244 6.23287 7.1856C6.46671 7.61865 7.2 7.77743 7.71387 8.06035C7.81203 7.584 8.01123 7.099 7.97947 6.63131C7.94194 6.12032 7.63304 5.6382 7.54354 5.12433C7.42518 4.46611 7.40786 3.78767 7.32125 2.81766L8.93505 3.76747L8.92639 3.77035Z" fill="white"/>
<path d="M98.0989 18.2108L98.6561 18.0808C98.7282 17.4832 98.8466 16.8857 98.8639 16.2881C98.887 15.3267 98.7167 14.3423 98.8755 13.4098C98.965 12.8786 99.6521 11.975 99.883 12.0269C100.53 12.1799 101.202 12.6476 101.627 13.1817C101.901 13.5253 101.788 14.2008 101.791 14.7262C101.806 16.3631 101.791 18 101.791 19.634C101.788 20.5578 101.895 21.4788 103.07 21.5105C104.245 21.5452 104.612 20.7051 104.618 19.6831C104.629 17.6622 104.704 15.6327 104.56 13.6234C104.496 12.7256 104.193 11.6343 103.593 11.0396C102.73 10.1822 102.984 9.63077 103.454 8.79933C103.933 7.95057 104.427 7.02675 104.563 6.0856C104.753 4.76627 104.641 3.39786 104.618 2.04966C104.603 1.08542 104.237 0.294398 103.142 0.291511C101.976 0.288624 101.788 1.14605 101.788 2.09874C101.788 3.44694 101.976 4.84133 101.682 6.12313C101.523 6.82177 100.533 7.32699 99.9148 7.91881C99.551 7.31544 98.9447 6.73805 98.8697 6.10292C98.7109 4.72585 98.8264 3.31703 98.8293 1.92263C98.8293 0.912203 98.2028 0.343476 97.3252 0.320381C96.4418 0.297285 95.7749 0.848691 95.7576 1.85046C95.6738 6.61391 95.5728 11.386 96.947 16.0196C97.1779 16.7962 97.712 17.4832 98.1075 18.2108H98.0989Z" fill="white"/>
<path d="M16.4527 17.9199C16.5076 17.3829 16.5826 16.9297 16.5913 16.4735C16.6057 15.5613 16.5278 14.6432 16.5855 13.7338C16.6375 12.8649 17.0821 12.3048 18.055 12.3106C19.0019 12.3163 19.4724 12.7927 19.5273 13.7107C19.5533 14.19 19.5591 14.6721 19.5619 15.1513C19.5793 16.8344 19.4984 18.529 19.6601 20.1977C19.7063 20.6798 20.4973 21.4997 20.838 21.4477C21.3749 21.3669 21.8484 20.7029 22.2872 20.2323C22.4113 20.0966 22.3392 19.7675 22.3392 19.5279C22.3392 13.754 22.3478 7.98015 22.3276 2.20338C22.3276 1.74147 22.2324 1.22182 22.0043 0.832084C21.4846 -0.0513205 20.2086 0.0266268 19.8044 0.96777C19.6052 1.43257 19.585 1.99552 19.5735 2.51517C19.5388 4.3426 19.5995 6.17293 19.5215 7.99747C19.4696 9.25041 18.4591 9.95771 17.4891 9.36588C16.9983 9.06564 16.6086 8.2342 16.5711 7.6164C16.4556 5.74566 16.5509 3.86626 16.5335 1.98975C16.5249 0.979317 15.985 0.26913 14.9717 0.303773C13.9642 0.338417 13.4792 1.0284 13.5311 2.08213C13.7621 6.71856 13.1356 11.4127 14.6282 15.9597C14.9371 16.9008 15.2719 17.611 16.4527 17.9112V17.9199Z" fill="white"/>
<path d="M139.412 16.1239L138.771 16.0373C138.635 15.0586 138.485 14.0799 138.364 13.0984C137.896 9.27895 137.446 5.45664 136.97 1.64011C136.845 0.658546 136.147 0.0753844 135.272 0.355418C134.802 0.505539 134.21 1.44091 134.279 1.93746C135.105 7.98849 136.054 14.0251 136.949 20.0675C137.177 21.6091 138.275 21.6177 139.426 21.5773C140.575 21.5369 141.698 21.4445 141.921 19.9693C142.758 14.3571 143.589 8.74487 144.421 3.12977C144.49 2.65342 144.678 2.14243 144.571 1.70651C144.453 1.21284 144.123 0.465122 143.777 0.401609C143.289 0.309227 142.608 0.629677 142.192 0.987658C141.883 1.25326 141.794 1.84797 141.733 2.31276C141.286 5.69915 140.919 9.09708 140.42 12.4748C140.235 13.7162 139.756 14.9114 139.412 16.1297V16.1239Z" fill="white"/>
<path d="M148.866 10.8376C148.866 13.7246 148.903 16.6115 148.848 19.4956C148.822 20.7629 149.417 21.4789 150.572 21.5337C152.489 21.629 154.426 21.6377 156.334 21.4702C156.834 21.4269 157.55 20.6388 157.651 20.096C157.807 19.2646 157.2 18.6757 156.242 18.6814C155.281 18.6843 154.285 18.8373 153.369 18.6266C152.83 18.5024 152.093 17.8413 152.024 17.3448C151.836 15.9764 151.831 14.5473 152.018 13.1789C152.088 12.6795 152.835 12.1541 153.393 11.8798C153.817 11.6719 154.501 12.0039 154.94 11.8076C155.468 11.5709 156.152 11.0686 156.225 10.6009C156.303 10.0899 155.884 9.31042 155.436 8.97265C155.058 8.68684 154.331 8.83696 153.759 8.84274C152.593 8.85429 151.995 8.34907 151.929 7.13078C151.709 3.1468 151.692 3.14969 155.734 3.14392C155.829 3.14392 155.927 3.14392 156.023 3.14969C156.964 3.19011 157.694 2.87254 157.708 1.83036C157.723 0.77951 157.044 0.274295 156.04 0.256974C154.311 0.228104 152.578 0.207896 150.846 0.248313C149.44 0.280069 148.869 0.92097 148.866 2.32114C148.863 5.159 148.866 7.99686 148.866 10.8376Z" fill="white"/>
<path d="M30.4087 0.314855V0.260003C29.6869 0.260003 28.9103 0.0925607 28.2637 0.309081C27.6747 0.505393 26.9645 1.03948 26.7971 1.57645C26.6787 1.9633 27.2474 2.83804 27.718 3.07477C28.6447 3.54246 28.9421 4.16315 28.9363 5.12739C28.9103 8.92372 28.9074 12.72 28.9363 16.5164C28.945 17.5788 28.6765 18.3207 27.617 18.8144C27.1839 19.0165 26.7278 19.8248 26.7971 20.2752C26.8693 20.74 27.5448 21.4184 28.0038 21.4559C29.6234 21.5887 31.269 21.5772 32.8856 21.4242C33.3678 21.378 34.1328 20.7024 34.1472 20.2925C34.1646 19.7959 33.6334 19.0511 33.1455 18.8144C32.2101 18.3582 31.9156 17.7289 31.9214 16.7647C31.9416 12.824 31.9416 8.8833 31.9214 4.94262C31.9156 4.01591 32.2447 3.46451 33.1281 3.04879C33.6189 2.81783 34.2252 2.04991 34.1588 1.61975C34.0837 1.12897 33.3822 0.519828 32.8395 0.363933C32.086 0.1503 31.2257 0.309081 30.4087 0.309081V0.314855Z" fill="white"/>
<path d="M126.35 21.5369V21.5225C127.167 21.5225 128.031 21.687 128.784 21.4705C129.373 21.3002 130.06 20.7344 130.248 20.1887C130.357 19.8625 129.578 19.2418 129.211 18.7424C128.798 18.1765 128.074 17.6049 128.057 17.0217C127.953 12.9396 127.958 8.8517 128.045 4.76956C128.057 4.22104 128.614 3.46466 129.125 3.19907C129.896 2.79778 130.597 2.35897 130.274 1.52175C130.069 0.987668 129.295 0.398732 128.721 0.332332C127.251 0.159116 125.738 0.162003 124.269 0.317898C123.764 0.372749 123.039 1.03675 122.947 1.52464C122.857 1.99232 123.325 2.88728 123.769 3.0807C124.861 3.55705 125.109 4.28744 125.1 5.35272C125.069 8.95563 125.071 12.5614 125.1 16.1643C125.112 17.3509 124.959 18.3007 123.657 18.829C123.258 18.9906 122.863 19.8827 122.955 20.3446C123.048 20.8065 123.694 21.3377 124.202 21.4878C124.864 21.6842 125.629 21.5369 126.347 21.5369H126.35Z" fill="white"/>
<path d="M82.8469 21.4879V21.5514C83.6148 21.5514 84.4231 21.6986 85.1391 21.5023C85.6703 21.358 86.4238 20.7979 86.4584 20.3735C86.4989 19.825 86.0514 18.8896 85.5895 18.7193C84.452 18.2949 84.2008 17.5905 84.2008 16.5166C84.2008 13.9241 84.2355 11.323 84.0536 8.73914C83.866 6.10336 83.4127 3.47913 81.5968 1.37744C81.2186 0.941511 80.5777 0.600852 80.0148 0.517131C79.7636 0.479601 79.2064 1.15226 79.1314 1.56509C78.9841 2.40808 79.3825 3.06053 80.3208 3.2222C81.2735 3.38675 81.4958 3.99878 81.49 4.88796C81.464 8.73048 81.4698 12.573 81.5044 16.4155C81.5131 17.5703 81.3572 18.4566 80.0003 18.8146C79.6019 18.9185 79.1285 19.7673 79.1689 20.2292C79.2093 20.6766 79.8127 21.3147 80.2746 21.4272C81.0887 21.6236 81.9866 21.4821 82.8498 21.4821L82.8469 21.4879Z" fill="white"/>
<path d="M84.7815 0C84.2388 0.49078 83.6931 0.984447 83.1504 1.47523C83.7162 2.09881 84.181 3.06882 84.8681 3.26513C85.7775 3.52496 86.6263 2.92736 86.5656 1.71773C86.5166 0.73617 85.9998 0.239616 84.7815 0Z" fill="white"/>
<path d="M96.5071 17.6914L95.8807 17.7953C95.8229 18.67 95.6613 19.5563 95.7681 20.4109C95.8056 20.7082 96.5014 20.9219 96.8969 21.173C97.1221 20.8093 97.6013 20.3791 97.5262 20.0933C97.3039 19.259 96.8622 18.4853 96.5071 17.6885V17.6914Z" fill="white"/>
<path d="M14.3625 17.6855L13.6927 17.8328C13.6321 18.7133 13.5166 19.5938 13.5484 20.4714C13.5571 20.7111 14.0536 21.1528 14.2644 21.1181C14.6194 21.0604 15.2344 20.6331 15.1997 20.4714C15.0063 19.5274 14.657 18.6123 14.3596 17.6884L14.3625 17.6855Z" fill="white"/>
<path d="M115.174 8.84584C115.298 8.22226 115.509 7.60157 115.532 6.97511C115.589 5.29491 115.558 3.60893 115.584 1.92873C115.595 1.03089 115.849 0.257194 116.943 0.280289C118.003 0.303385 118.3 1.04533 118.3 1.95472C118.312 7.91625 118.344 13.8807 118.271 19.8422C118.266 20.4052 117.688 21.3059 117.221 21.4242C116.724 21.5484 115.742 21.0778 115.497 20.5986C114.963 19.5535 114.729 18.3439 114.438 17.1862C114.227 16.349 114.186 15.4685 113.932 14.6486C113.834 14.3368 113.358 14.1405 113.055 13.8922C112.835 14.2156 112.44 14.5302 112.428 14.8593C112.376 16.2999 112.44 17.7434 112.451 19.184C112.454 19.5679 112.578 20.0876 112.382 20.307C111.946 20.792 111.323 21.456 110.814 21.4242C110.353 21.3954 109.622 20.5784 109.564 20.0501C109.4 18.4796 109.512 16.8831 109.51 15.2953C109.51 10.9677 109.521 6.64022 109.484 2.3127C109.475 1.207 109.723 0.320706 110.967 0.294724C112.114 0.271628 112.726 0.932738 112.98 2.12504C113.465 4.39129 114.12 6.62001 114.706 8.86605L115.168 8.84873L115.174 8.84584Z" fill="white"/>
<path d="M41.4417 12.9629C41.3435 13.8549 41.1847 14.7412 41.1587 15.6362C41.1154 16.9815 41.1703 18.3268 41.1703 19.6721C41.1703 20.5931 41.0317 21.4938 39.8654 21.5342C38.6702 21.5775 38.5201 20.671 38.4883 19.753C38.4681 19.2246 38.4854 18.6963 38.4854 18.168C38.4854 12.9282 38.4796 7.68843 38.4854 2.44863C38.4854 1.54213 38.3786 0.48262 39.6142 0.280534C40.7834 0.089996 41.3868 0.953191 41.7246 1.87413C42.0335 2.72 42.0392 3.67269 42.3048 4.53877C42.7206 5.91007 43.2402 7.24961 43.7166 8.60359L44.4037 8.49966C44.4498 7.69131 44.5422 6.88008 44.5307 6.07174C44.5134 4.7755 44.4037 3.47926 44.3748 2.18303C44.3546 1.15816 44.7357 0.318064 45.8847 0.30363C47.0134 0.289195 47.2617 1.11775 47.2588 2.09642C47.2502 7.91361 47.2502 13.7279 47.2588 19.5451C47.2588 20.5382 47.1405 21.4736 45.9078 21.5169C44.7645 21.5573 44.0803 20.9337 43.7974 19.7703C43.2749 17.6339 42.6628 15.5207 42.0768 13.4017C42.0306 13.2314 41.8978 13.087 41.8054 12.9311L41.4474 12.9658L41.4417 12.9629Z" fill="white"/>
<path d="M52.1259 10.8579C52.1259 8.06909 52.1259 5.2803 52.1259 2.49152C52.1259 0.690066 52.5531 0.248364 54.3026 0.245477C55.4083 0.245477 56.5169 0.210834 57.6168 0.280121C59.7474 0.418694 60.9253 1.68317 60.9657 3.82528C60.9917 5.1706 61.1043 6.53612 60.931 7.85834C60.8011 8.85145 60.2411 9.78105 59.9408 10.7597C59.782 11.2736 59.5078 12.0444 59.7416 12.3389C61.6412 14.7235 60.856 17.495 60.9022 20.1134C60.9108 20.5782 59.9235 21.4472 59.4241 21.427C58.8986 21.4068 58.0759 20.61 57.9633 20.0384C57.7323 18.8836 57.9373 17.6451 57.8738 16.447C57.842 15.8407 57.7843 15.1161 57.4378 14.6831C57.0827 14.2414 56.3639 13.9065 55.8009 13.9007C55.5151 13.9007 55.0099 14.7119 54.9753 15.1854C54.8656 16.6664 54.932 18.1618 54.9349 19.6544C54.9349 20.5869 54.7847 21.4847 53.6242 21.5107C52.4261 21.5396 52.1288 20.659 52.1259 19.6515C52.1172 16.7184 52.123 13.7852 52.123 10.8521L52.1259 10.8579ZM58.0181 5.79129C57.8651 4.98872 57.8362 3.98984 57.4494 3.1584C57.2444 2.71959 56.4216 2.38759 55.8645 2.37027C55.5758 2.36161 55.0301 3.12376 55.0013 3.56546C54.8916 5.13884 54.8742 6.72955 54.9926 8.30005C55.0272 8.76484 55.6508 9.57319 55.9453 9.5472C56.5285 9.49524 57.3483 9.09684 57.5649 8.61472C57.92 7.8237 57.8738 6.85369 58.0181 5.79129Z" fill="white"/>
<path d="M168.066 2.64211C169.108 2.20041 168.222 0.199758 169.845 0.756938C171.005 1.15534 170.719 2.2899 170.563 3.23682C168.984 3.31765 168.675 3.794 169.169 5.26634C169.351 5.80908 169.59 6.35183 169.654 6.9119C169.694 7.27565 169.461 7.67116 169.351 8.05513C168.961 7.92233 168.415 7.90212 168.216 7.62786C167.873 7.15729 167.679 6.54526 167.549 5.96209C167.425 5.4078 167.674 4.63987 167.376 4.28767C166.946 3.77668 166.198 3.44179 165.529 3.28012C165.347 3.23682 164.937 4.06537 164.66 4.51285C164.593 4.61967 164.645 4.79577 164.639 4.94012C164.535 8.49105 164.714 8.74222 168.115 9.82482C169.928 10.4022 170.488 11.173 170.48 13.0813C170.471 14.8135 170.506 16.5485 170.442 18.2778C170.364 20.4401 169.371 21.4274 167.22 21.5314C165.973 21.5891 164.717 21.6093 163.47 21.5602C162.235 21.5112 161.519 20.8962 161.556 19.5509C161.597 18.0613 161.519 16.5629 161.608 15.0762C161.637 14.594 161.954 13.8175 162.278 13.7337C162.774 13.6096 163.531 13.8203 163.918 14.1726C164.322 14.545 164.483 15.2349 164.634 15.8152C164.775 16.3637 164.573 17.1115 164.873 17.4868C165.289 18.0035 166.005 18.3788 166.66 18.5347C166.848 18.5809 167.44 17.7004 167.541 17.1865C167.694 16.3984 167.702 15.5323 167.541 14.7471C167.419 14.1668 167.044 13.4826 166.568 13.1679C165.742 12.6223 164.769 12.2845 163.828 11.9409C162.263 11.3693 161.579 10.4744 161.591 8.85481C161.602 7.07357 161.545 5.28944 161.648 3.51397C161.776 1.36031 163.297 0.0958281 165.393 0.257497C166.421 0.335444 167.264 0.664556 167.572 1.79624C167.653 2.0907 167.89 2.33898 168.072 2.63922L168.066 2.64211Z" fill="white"/>
<path d="M8.92536 3.77101L7.31156 2.82121C7.39817 3.79122 7.41838 4.46965 7.53386 5.12787C7.62624 5.64175 7.93514 6.12675 7.96979 6.63486C8.00443 7.10254 7.80234 7.58755 7.70419 8.06389C7.1932 7.78097 6.45703 7.62219 6.22319 7.18915C5.90851 6.60599 5.92006 5.81496 5.89407 5.11055C5.85943 4.13188 5.55919 3.45922 4.48525 3.26291C3.56431 3.09547 3.0591 3.43612 3.00713 4.33108C2.94939 5.33862 2.89743 6.36348 3.036 7.3537C3.10529 7.8416 3.51235 8.43053 3.93962 8.69325C4.74507 9.18691 5.66023 9.52757 6.55807 9.84513C8.37107 10.4889 8.95712 11.3579 8.88495 13.2633C8.82143 14.8973 8.86763 16.5342 8.82432 18.1682C8.76369 20.3969 7.76193 21.4362 5.5563 21.5372C4.30914 21.595 3.05332 21.621 1.80617 21.5632C0.642728 21.5055 -0.0299297 20.8877 -0.00106025 19.6203C0.03647 18.0816 -0.0212688 16.54 0.0537916 15.0041C0.0768872 14.5566 0.325164 13.8493 0.628293 13.7512C1.07577 13.6039 1.85813 13.7252 2.14971 14.0456C2.58853 14.5306 2.78484 15.2726 2.97826 15.9366C3.13705 16.4793 2.95228 17.2213 3.2583 17.5995C3.65092 18.0845 4.36688 18.4742 4.9818 18.5435C5.25029 18.5724 5.61693 17.6918 5.9316 17.2242C5.9547 17.1895 5.93449 17.1289 5.93738 17.0827C6.14235 13.5173 5.82767 13.0698 2.35468 11.9901C0.573441 11.433 0.0133745 10.6188 0.0451308 8.73655C0.0768872 7.00438 0.0249222 5.27222 0.0826611 3.54005C0.163495 1.10059 2.08331 -0.290917 4.43906 0.410609C4.92695 0.554956 5.34844 1.0313 5.72086 1.42681C5.98646 1.70973 6.12214 2.11391 6.28959 2.41992C7.41549 2.2034 6.70242 0.0786111 8.26137 0.757042C9.58936 1.33443 8.94557 2.54983 8.92536 3.76812V3.77101Z" fill="white"/>
<path d="M75.5138 20.3705C75.2539 20.6477 74.7718 21.4964 74.4398 21.4416C73.8191 21.3377 73.0223 20.8267 72.7798 20.2753C72.4478 19.5275 72.5489 18.5806 72.4998 17.7174C72.4276 16.4039 71.6828 15.8785 70.4414 15.8034C69.2289 15.7283 68.5216 16.1989 68.3339 17.4345C68.1982 18.3381 68.0308 19.236 67.8229 20.1251C67.6209 20.9883 67.1878 21.7014 66.1514 21.5282C65.0659 21.3463 65.0226 20.5091 65.1496 19.6344C66.0157 13.6959 66.8616 7.75171 67.797 1.82482C67.8807 1.30229 68.5014 0.560341 68.9893 0.456412C71.8647 -0.152733 72.6528 0.329386 72.9386 2.89876C73.5449 8.38395 74.512 13.8287 75.3319 19.2908C75.3665 19.5275 75.4127 19.7643 75.5166 20.3705H75.5138ZM71.0996 5.75106L70.4327 5.74529C69.1365 7.73439 68.9229 10.0006 69.0845 12.3015C69.1105 12.6653 69.8958 13.1474 70.3923 13.2427C70.6839 13.3004 71.4201 12.6999 71.4172 12.4026C71.3883 10.1825 71.2238 7.96535 71.0996 5.74818V5.75106Z" fill="white"/>
<path d="M98.0978 18.2108C97.7023 17.4833 97.1682 16.7962 96.9372 16.0196C95.563 11.386 95.6641 6.61393 95.7478 1.85048C95.7651 0.848712 96.432 0.297307 97.3154 0.320402C98.1959 0.343498 98.8224 0.912225 98.8195 1.92265C98.8166 3.31705 98.7011 4.72587 98.8599 6.10295C98.9321 6.74096 99.5384 7.31546 99.905 7.91883C100.52 7.32701 101.51 6.81891 101.672 6.12315C101.966 4.84135 101.779 3.44696 101.779 2.09876C101.779 1.14607 101.966 0.285759 103.133 0.291533C104.227 0.29442 104.593 1.08544 104.608 2.04968C104.628 3.39788 104.744 4.76341 104.553 6.08562C104.417 7.02677 103.924 7.95059 103.444 8.79935C102.974 9.63079 102.723 10.1822 103.583 11.0396C104.183 11.6343 104.487 12.7256 104.55 13.6234C104.694 15.6356 104.619 17.6623 104.608 19.6831C104.602 20.7051 104.233 21.5452 103.06 21.5106C101.885 21.4759 101.779 20.5579 101.782 19.634C101.787 17.9971 101.799 16.3602 101.782 14.7262C101.776 14.2008 101.888 13.5253 101.617 13.1817C101.193 12.6505 100.523 12.1828 99.8732 12.0269C99.6423 11.9721 98.9552 12.8757 98.8657 13.4098C98.7069 14.3423 98.8801 15.3267 98.8542 16.2881C98.8397 16.8886 98.7214 17.4833 98.6463 18.0809L98.0891 18.2108H98.0978Z" fill="white"/>
<path d="M16.4527 17.9195C15.2719 17.6193 14.9371 16.912 14.6282 15.968C13.1356 11.4181 13.7621 6.72397 13.5311 2.09043C13.4792 1.03381 13.9642 0.34383 14.9717 0.312074C15.985 0.277431 16.5249 0.984731 16.5335 1.99805C16.5509 3.87456 16.4556 5.75685 16.5711 7.6247C16.6086 8.23962 16.9983 9.07394 17.4891 9.37418C18.4591 9.96601 19.4696 9.25871 19.5215 8.00577C19.5995 6.18123 19.5417 4.35091 19.5735 2.52347C19.5821 2.00382 19.6052 1.44087 19.8044 0.976071C20.2086 0.0349276 21.4846 -0.0430198 22.0043 0.840384C22.2324 1.23012 22.3276 1.74977 22.3276 2.21168C22.3478 7.98557 22.3421 13.7594 22.3392 19.5362C22.3392 19.7758 22.4113 20.1049 22.2872 20.2406C21.8484 20.7141 21.3749 21.3781 20.838 21.456C20.4944 21.508 19.7063 20.6881 19.6601 20.206C19.4984 18.5373 19.5793 16.8427 19.5619 15.1596C19.5562 14.6804 19.5533 14.1983 19.5273 13.719C19.4753 12.7981 19.0019 12.3246 18.055 12.3189C17.0821 12.3131 16.6375 12.8732 16.5855 13.7421C16.5306 14.6515 16.6057 15.5667 16.5913 16.4818C16.5855 16.9351 16.5076 17.3883 16.4527 17.9282V17.9195Z" fill="white"/>
<path d="M139.412 16.1238C139.756 14.9084 140.238 13.7103 140.42 12.4689C140.922 9.09122 141.286 5.69329 141.733 2.3069C141.794 1.84211 141.883 1.2474 142.192 0.981799C142.608 0.623818 143.289 0.303367 143.777 0.395749C144.123 0.462149 144.45 1.20698 144.571 1.70065C144.678 2.13658 144.49 2.64756 144.421 3.12391C143.589 8.73612 142.755 14.3512 141.921 19.9634C141.701 21.4358 140.575 21.5311 139.426 21.5715C138.275 21.6119 137.177 21.6032 136.949 20.0616C136.054 14.0192 135.105 7.98552 134.279 1.9316C134.21 1.43505 134.802 0.499679 135.272 0.349558C136.147 0.069525 136.848 0.652687 136.97 1.63425C137.446 5.45367 137.896 9.2731 138.364 13.0925C138.485 14.0741 138.635 15.0528 138.771 16.0314L139.412 16.118V16.1238Z" fill="white"/>
<path d="M148.866 10.8376C148.866 7.99975 148.866 5.16189 148.866 2.32114C148.866 0.92097 149.44 0.280069 150.846 0.248313C152.575 0.207896 154.308 0.228104 156.04 0.256974C157.044 0.274295 157.723 0.77951 157.708 1.83036C157.694 2.87254 156.963 3.19299 156.022 3.14969C155.927 3.1468 155.829 3.14392 155.734 3.14392C151.689 3.14969 151.709 3.1468 151.929 7.13078C151.995 8.34618 152.593 8.8514 153.759 8.84274C154.331 8.83696 155.058 8.68684 155.436 8.97265C155.884 9.31042 156.302 10.0899 156.224 10.6009C156.155 11.0715 155.468 11.5709 154.94 11.8076C154.501 12.0068 153.817 11.6719 153.392 11.8798C152.835 12.1512 152.085 12.6795 152.018 13.1789C151.831 14.5473 151.836 15.9764 152.024 17.3448C152.093 17.8442 152.829 18.5024 153.369 18.6266C154.282 18.8373 155.278 18.6843 156.242 18.6814C157.2 18.6785 157.806 19.2646 157.651 20.096C157.55 20.6388 156.831 21.424 156.334 21.4702C154.426 21.6406 152.492 21.629 150.572 21.5337C149.417 21.476 148.825 20.7629 148.848 19.4956C148.906 16.6115 148.866 13.7217 148.866 10.8376Z" fill="white"/>
<path d="M30.4074 0.314941C31.2215 0.314941 32.0847 0.153272 32.8382 0.369793C33.381 0.525687 34.0825 1.13483 34.1576 1.62561C34.224 2.05577 33.6177 2.82369 33.1269 3.05465C32.2435 3.47037 31.9173 4.02177 31.9202 4.94848C31.9404 8.88916 31.9433 12.8298 31.9202 16.7705C31.9144 17.7347 32.2089 18.3612 33.1442 18.8202C33.6321 19.0599 34.1633 19.8018 34.146 20.2983C34.1316 20.7083 33.3665 21.3838 32.8844 21.43C31.2677 21.583 29.6193 21.5946 28.0026 21.4618C27.5465 21.4243 26.8709 20.7429 26.7959 20.281C26.7266 19.8307 27.1827 19.0252 27.6157 18.8202C28.6753 18.3237 28.9437 17.5846 28.9351 16.5222C28.9062 12.7259 28.912 8.92957 28.9351 5.13325C28.9409 4.16612 28.6435 3.54832 27.7168 3.08063C27.2433 2.8439 26.6746 1.96916 26.7959 1.58231C26.9604 1.04534 27.6706 0.511253 28.2624 0.314941C28.9091 0.0984201 29.6857 0.265863 30.4074 0.265863V0.320715V0.314941Z" fill="white"/>
<path d="M126.35 21.5369C125.631 21.5369 124.866 21.6842 124.205 21.4878C123.697 21.3377 123.053 20.8065 122.958 20.3446C122.865 19.8856 123.258 18.9935 123.659 18.829C124.964 18.3007 125.114 17.3509 125.103 16.1643C125.071 12.5614 125.068 8.95563 125.103 5.35272C125.112 4.28744 124.866 3.55705 123.772 3.0807C123.327 2.88728 122.857 1.99521 122.949 1.52464C123.044 1.03675 123.766 0.369863 124.271 0.317898C125.744 0.162003 127.257 0.159116 128.723 0.332332C129.3 0.398732 130.071 0.987668 130.276 1.52175C130.597 2.35897 129.898 2.79778 129.127 3.19907C128.616 3.46466 128.059 4.22104 128.048 4.76956C127.961 8.8517 127.955 12.9396 128.059 17.0217C128.074 17.6049 128.801 18.1765 129.214 18.7424C129.578 19.2418 130.36 19.8625 130.25 20.1887C130.066 20.7344 129.376 21.3002 128.787 21.4705C128.033 21.6899 127.17 21.5225 126.353 21.5225V21.5369H126.35Z" fill="white"/>
<path d="M82.8467 21.4875C81.9835 21.4875 81.0886 21.6289 80.2716 21.4326C79.8097 21.32 79.2063 20.682 79.1659 20.2345C79.1226 19.7726 79.5989 18.9239 79.9973 18.8199C81.3542 18.462 81.5101 17.5757 81.5014 16.4209C81.4697 12.5784 81.4639 8.73585 81.487 4.89333C81.4928 4.00415 81.2676 3.38924 80.3178 3.22757C79.3795 3.0659 78.9782 2.41345 79.1283 1.57046C79.2005 1.15763 79.7606 0.484972 80.0117 0.522502C80.5747 0.606223 81.2156 0.943995 81.5938 1.38281C83.4097 3.4845 83.8629 6.10873 84.0506 8.74451C84.2354 11.3283 84.1978 13.9295 84.1978 16.5219C84.1978 17.593 84.449 18.3003 85.5864 18.7247C86.0483 18.895 86.4958 19.8304 86.4554 20.3789C86.4236 20.8004 85.6673 21.3633 85.1361 21.5077C84.4201 21.7011 83.6118 21.5568 82.8438 21.5568V21.4932L82.8467 21.4875Z" fill="white"/>
<path d="M84.7815 0C85.9998 0.242503 86.5166 0.73617 86.5656 1.71773C86.6263 2.92736 85.7746 3.52207 84.8681 3.26513C84.181 3.06882 83.7162 2.10169 83.1504 1.47523C83.6931 0.984447 84.2388 0.49078 84.7815 0Z" fill="white"/>
<path d="M96.5079 17.6914C96.863 18.4882 97.3047 19.2619 97.527 20.0962C97.6021 20.3791 97.1228 20.8122 96.8976 21.1759C96.5021 20.9248 95.8035 20.7083 95.7688 20.4138C95.6649 19.5593 95.8237 18.673 95.8814 17.7982L96.5079 17.6943V17.6914Z" fill="white"/>
<path d="M14.3624 17.6855C14.6597 18.6093 15.0091 19.5216 15.2025 20.4685C15.2342 20.6302 14.6222 21.0575 14.2671 21.1152C14.0564 21.1498 13.5598 20.711 13.5512 20.4685C13.5165 19.5938 13.6349 18.7104 13.6955 17.8299L14.3653 17.6826L14.3624 17.6855Z" fill="white"/>
</g>
<defs>
<clipPath id="clip0_102_125">
<rect width="170.711" height="21.603" fill="white"/>
</clipPath>
</defs>
</svg>
