<svg width="22" height="22" viewBox="0 0 22 22" fill="none" xmlns="http://www.w3.org/2000/svg">
<path d="M13.2048 1.76074H5.28209C4.81515 1.76074 4.36733 1.94623 4.03715 2.27641C3.70698 2.60659 3.52148 3.05441 3.52148 3.52135V17.6062C3.52148 18.0731 3.70698 18.521 4.03715 18.8511C4.36733 19.1813 4.81515 19.3668 5.28209 19.3668H15.8457C16.3127 19.3668 16.7605 19.1813 17.0907 18.8511C17.4208 18.521 17.6063 18.0731 17.6063 17.6062V6.16226L13.2048 1.76074Z" stroke="white" stroke-width="1.76061" stroke-linecap="round" stroke-linejoin="round"/>
<path d="M12.3242 1.76074V5.28195C12.3242 5.7489 12.5097 6.19671 12.8399 6.52689C13.1701 6.85707 13.6179 7.04256 14.0848 7.04256H17.606" stroke="white" stroke-width="1.76061" stroke-linecap="round" stroke-linejoin="round"/>
<path d="M7.92188 13.2049L9.68248 14.9655L13.2037 11.4443" stroke="white" stroke-width="1.76061" stroke-linecap="round" stroke-linejoin="round"/>
</svg>
