<svg width="22" height="22" viewBox="0 0 22 22" fill="none" xmlns="http://www.w3.org/2000/svg">
<g clip-path="url(#clip0_57_3047)">
<path d="M19.1905 8.80324C19.5926 10.7763 19.3061 12.8275 18.3788 14.6148C17.4515 16.4022 15.9395 17.8176 14.0949 18.6251C12.2503 19.4325 10.1847 19.5832 8.24247 19.052C6.30024 18.5209 4.5988 17.3399 3.42191 15.7061C2.24502 14.0722 1.66381 12.0843 1.77521 10.0739C1.8866 8.06337 2.68387 6.15184 4.03405 4.65804C5.38424 3.16424 7.20572 2.17845 9.19475 1.86509C11.1838 1.55172 13.2201 1.92971 14.9642 2.93602" stroke="white" stroke-width="1.76061" stroke-linecap="round" stroke-linejoin="round"/>
<path d="M7.92188 9.68361L10.5628 12.3245L19.3658 3.52148" stroke="white" stroke-width="1.76061" stroke-linecap="round" stroke-linejoin="round"/>
</g>
<defs>
<clipPath id="clip0_57_3047">
<rect width="21.1273" height="21.1273" fill="white"/>
</clipPath>
</defs>
</svg>
