<svg width="155" height="20" viewBox="0 0 155 20" fill="none" xmlns="http://www.w3.org/2000/svg">
<path d="M10.7257 9.48007C11.7911 9.6787 12.6669 10.2114 13.353 11.0781C14.0392 11.9449 14.3823 12.938 14.3823 14.0576C14.3823 15.0688 14.1295 15.9626 13.6239 16.739C13.1363 17.4974 12.4231 18.0933 11.4841 18.5267C10.5451 18.9601 9.43463 19.1768 8.15257 19.1768H-0.000226181V0.270929H7.80046C9.08252 0.270929 10.184 0.478586 11.1049 0.8939C12.0439 1.30921 12.7481 1.88704 13.2176 2.62739C13.7051 3.36773 13.9489 4.20739 13.9489 5.14636C13.9489 6.24784 13.651 7.16876 13.0551 7.9091C12.4773 8.64944 11.7008 9.1731 10.7257 9.48007ZM3.79177 8.07161H7.25875C8.1616 8.07161 8.8568 7.87299 9.34435 7.47573C9.83189 7.06041 10.0757 6.47356 10.0757 5.71516C10.0757 4.95676 9.83189 4.3699 9.34435 3.95459C8.8568 3.53927 8.1616 3.33161 7.25875 3.33161H3.79177V8.07161ZM7.61086 16.089C8.53177 16.089 9.24503 15.8723 9.75063 15.4389C10.2743 15.0056 10.5361 14.3916 10.5361 13.5971C10.5361 12.7845 10.2653 12.1525 9.72355 11.7011C9.18183 11.2316 8.45052 10.9969 7.5296 10.9969H3.79177V16.089H7.61086ZM27.1553 19.1768L22.9841 11.8094H21.1965V19.1768H17.4045V0.270929H24.5009C25.9635 0.270929 27.2095 0.532757 28.2387 1.05641C29.268 1.56201 30.0354 2.25721 30.541 3.14201C31.0647 4.00876 31.3265 4.98384 31.3265 6.06727C31.3265 7.31321 30.9654 8.44179 30.2431 9.45299C29.5208 10.4461 28.4464 11.1323 27.0199 11.5115L31.5432 19.1768H27.1553ZM21.1965 8.96544H24.3655C25.3947 8.96544 26.1622 8.72167 26.6678 8.23413C27.1734 7.72853 27.4262 7.03333 27.4262 6.14853C27.4262 5.28179 27.1734 4.61367 26.6678 4.14419C26.1622 3.65664 25.3947 3.41287 24.3655 3.41287H21.1965V8.96544ZM52.8842 0.270929V3.33161H45.0023V8.17996H51.0424V11.1865H45.0023V19.1768H41.2103V0.270929H52.8842ZM59.3109 0.270929V11.972C59.3109 13.254 59.645 14.2381 60.3131 14.9243C60.9812 15.5924 61.9202 15.9265 63.13 15.9265C64.3579 15.9265 65.3059 15.5924 65.974 14.9243C66.6421 14.2381 66.9762 13.254 66.9762 11.972V0.270929H70.7953V11.9449C70.7953 13.552 70.4432 14.9153 69.7389 16.0348C69.0528 17.1363 68.1228 17.9669 66.9491 18.5267C65.7934 19.0865 64.5024 19.3664 63.0758 19.3664C61.6674 19.3664 60.3853 19.0865 59.2297 18.5267C58.0921 17.9669 57.1892 17.1363 56.5211 16.0348C55.853 14.9153 55.5189 13.552 55.5189 11.9449V0.270929H59.3109ZM90.6292 19.1768H86.8372L78.251 6.2027V19.1768H74.459V0.243842H78.251L86.8372 13.245V0.243842H90.6292V19.1768ZM110.547 19.1768H106.755L98.1686 6.2027V19.1768H94.3766V0.243842H98.1686L106.755 13.245V0.243842H110.547V19.1768ZM118.086 3.33161V8.07161H124.451V11.0781H118.086V16.089H125.264V19.1768H114.294V0.243842H125.264V3.33161H118.086ZM132.502 16.1702H138.732V19.1768H128.71V0.270929H132.502V16.1702ZM147.669 19.3664C146.351 19.3664 145.159 19.1406 144.094 18.6892C143.047 18.2378 142.216 17.5877 141.602 16.739C140.988 15.8904 140.672 14.8882 140.654 13.7325H144.717C144.771 14.509 145.042 15.1229 145.53 15.5744C146.035 16.0258 146.721 16.2515 147.588 16.2515C148.473 16.2515 149.168 16.0438 149.674 15.6285C150.179 15.1952 150.432 14.6354 150.432 13.9492C150.432 13.3894 150.261 12.929 149.918 12.5678C149.574 12.2067 149.141 11.9268 148.617 11.7282C148.112 11.5115 147.408 11.2768 146.505 11.024C145.277 10.6628 144.275 10.3107 143.498 9.96761C142.74 9.60647 142.081 9.07379 141.521 8.36956C140.979 7.64727 140.708 6.69024 140.708 5.49847C140.708 4.37893 140.988 3.40384 141.548 2.57321C142.108 1.74259 142.893 1.11059 143.904 0.677214C144.916 0.225786 146.071 7.19434e-05 147.371 7.19434e-05C149.322 7.19434e-05 150.902 0.478586 152.111 1.43561C153.339 2.37459 154.016 3.69276 154.143 5.39013H149.972C149.936 4.74007 149.656 4.20739 149.132 3.79207C148.626 3.3587 147.949 3.14201 147.101 3.14201C146.36 3.14201 145.764 3.33161 145.313 3.71081C144.88 4.09001 144.663 4.64076 144.663 5.36304C144.663 5.86864 144.825 6.29299 145.15 6.63607C145.494 6.9611 145.909 7.23196 146.396 7.44864C146.902 7.64727 147.606 7.88201 148.509 8.15287C149.737 8.51401 150.739 8.87516 151.516 9.2363C152.292 9.59744 152.96 10.1392 153.52 10.8614C154.08 11.5837 154.36 12.5317 154.36 13.7054C154.36 14.7166 154.098 15.6556 153.574 16.5224C153.05 17.3891 152.283 18.0843 151.272 18.608C150.261 19.1136 149.06 19.3664 147.669 19.3664Z" fill="url(#paint0_linear_57_2720)"/>
<defs>
<linearGradient id="paint0_linear_57_2720" x1="77.1309" y1="-10.8232" x2="77.1309" y2="30.1768" gradientUnits="userSpaceOnUse">
<stop stop-color="#793FEE"/>
<stop offset="1" stop-color="#26FDFE"/>
</linearGradient>
</defs>
</svg>
