<svg width="78" height="78" viewBox="0 0 78 78" fill="none" xmlns="http://www.w3.org/2000/svg">
<g clip-path="url(#clip0_57_3539)">
<path d="M56.5828 9.76155C52.2203 12.4543 53.5592 19.4193 58.6738 20.2015C65.1274 21.1192 67.775 12.3038 61.9833 9.47573C60.2835 8.64835 58.1774 8.73861 56.5828 9.76155ZM62.3293 11.7773C63.1417 10.98 64.3602 12.1985 63.5629 13.0109L59.1853 17.4035C58.8544 17.7344 58.2677 17.7344 57.9518 17.4035L55.5298 14.9815C54.7325 14.1692 55.951 12.9357 56.7634 13.748L58.5535 15.5532L62.3293 11.7773ZM51.9044 48.6482C55.0936 48.573 55.0936 43.8946 51.9044 43.8194C48.7152 43.8946 48.7152 48.573 51.9044 48.6482ZM51.9044 47.159C51.8141 47.159 51.7389 47.1289 51.6637 47.0988C51.8292 47.1439 51.9947 47.1439 52.1451 47.0988C52.0699 47.1289 51.9947 47.159 51.9044 47.159ZM51.6637 45.3688C51.8141 45.2936 51.9947 45.2936 52.1451 45.3688C51.9796 45.3237 51.8141 45.3237 51.6637 45.3688ZM32.3783 13.7179V12.9658H38.546V13.7179H32.3783ZM48.6099 37.6817C47.6321 37.6817 46.7446 37.3207 46.0526 36.734C46.1729 36.7491 46.2933 36.7641 46.4136 36.7641H58.4482V37.6817H48.6099ZM52.1601 15.3275C52.2053 15.5983 52.2353 15.8691 52.2805 16.1248H44.1872L42.021 12.8454C41.7201 12.2888 40.7875 12.5145 40.291 12.4392C40.291 11.7623 39.7344 11.2207 39.0575 11.2207H31.8518C31.1748 11.2207 30.6333 11.7773 30.6333 12.4392V14.2294C30.6333 14.9063 31.1899 15.4479 31.8518 15.4479H39.0575C39.7344 15.4479 40.291 14.8913 40.291 14.1993H40.8175L42.8484 17.238V33.6502C42.8484 36.8393 45.4358 39.4117 48.6099 39.4117H58.4482V42.0593H43.7359C42.5926 42.0593 42.5926 43.8043 43.7359 43.8043H48.5347C46.549 46.3918 48.6099 50.4835 51.9044 50.3782C55.1989 50.4835 57.2748 46.3918 55.2741 43.8043H58.4331V53.9134H29.2493C29.7307 49.9119 29.1741 45.8201 27.6999 42.0744V40.7656C27.6999 40.7656 33.326 32.8228 33.326 32.8077C35.6728 29.4982 34.9056 24.3535 31.3554 22.1572C30.2723 21.4652 28.9033 21.3147 27.6848 21.7359C27.6848 17.1779 27.6999 7.29446 27.6999 2.82663H34.9958C35.6427 3.66905 36.2143 5.30876 37.508 5.24858H48.5949C49.9939 5.27867 50.4151 3.77435 51.1221 2.82663H58.4181V7.24933C54.6272 7.82097 51.784 11.5066 52.1601 15.3275ZM60.1782 36.7641H61.517V37.6817H60.1782V36.7641ZM69.2191 43.8194C66.03 43.9096 66.03 48.558 69.2191 48.6482C72.4083 48.573 72.4083 43.9096 69.2191 43.8194ZM69.2191 45.3086C69.3244 45.3086 69.3997 45.3387 69.4899 45.3688C69.3244 45.3237 69.1439 45.3237 68.9784 45.3688C69.0537 45.3538 69.1289 45.3086 69.2191 45.3086ZM69.2191 47.159C69.1289 47.159 69.0537 47.1289 68.9784 47.0988C69.1439 47.1439 69.3244 47.1439 69.4899 47.0988C69.3997 47.1289 69.3244 47.159 69.2191 47.159ZM60.1782 39.4268H61.517V42.0744H60.1782V39.4268ZM76.2744 17.8698L71.7915 33.936C71.611 34.5678 70.8739 35.0191 70.0164 35.0191C65.1575 35.0191 51.4531 35.0041 46.4136 35.0041C45.511 34.989 44.6536 34.5377 44.6084 33.6652V17.8698H52.8972C55.4847 23.1951 63.608 23.1951 66.1954 17.8698H76.2744ZM25.9699 22.9394C25.7743 23.15 24.8417 24.4888 24.6611 24.7446V0.720578C24.6611 0.209109 25.1124 -0.242188 25.6239 -0.242188H60.5542C61.0657 -0.242188 61.517 0.209109 61.517 0.720578V7.44489C61.0808 7.32455 60.6595 7.24933 60.1932 7.2042V2.69124C60.1932 2.30011 60.0277 1.87891 59.7419 1.60813C59.065 0.87101 57.8916 1.08161 56.974 1.08161H50.5054C50.2045 1.08161 49.9337 1.23205 49.7683 1.47274L48.4445 3.48853H37.6735L36.3497 1.47274C36.1993 1.23205 35.9135 1.08161 35.6276 1.08161H27.5795C26.7221 1.05153 25.9849 1.84882 25.9549 2.69124V22.9394H25.9699ZM60.1782 43.8194H61.517V57.3432C61.517 57.8848 61.0657 58.306 60.5392 58.306H28.3317C28.6025 57.4335 28.8131 56.5309 28.9936 55.6433H58.5836C59.4711 55.6433 60.1932 54.9213 60.1932 54.0337V43.8194H60.1782ZM27.4441 23.9172C27.7751 23.6013 28.1812 23.3757 28.6325 23.3004C28.6025 24.2181 27.2787 25.2109 26.692 25.948C26.4362 26.2188 26.0602 26.3091 25.7142 26.2489C25.9699 25.918 27.1433 24.1729 27.4441 23.9172ZM27.7149 60.066H45.2402C44.458 61.8562 43.1793 63.7366 41.8706 65.0905C38.1549 69.0017 33.657 70.3255 31.2802 70.7618C30.7988 70.837 30.2873 70.837 29.7758 70.7918C28.8732 70.837 27.5645 69.7539 27.0229 70.9122C26.6168 72.3563 28.9033 72.4015 29.851 72.5369L27.5194 76.4782H0.546875L8.57995 62.2172C8.62508 62.127 8.67021 62.0217 8.68525 61.9164L10.7612 48.1217C11.0621 46.1962 11.8594 44.376 13.0929 42.8867L18.8996 35.8314L24.6762 27.7081C26.3309 28.5505 27.73 27.4674 28.798 26.279C29.5201 25.4967 30.2121 24.6543 30.3625 23.5712C33.1004 25.2711 33.8074 29.1974 31.927 31.7999L26.1354 39.9683C26.1053 40.0435 25.669 40.6001 25.669 40.6453C25.2328 41.3523 25.9849 42.1195 26.1354 42.8265C28.3016 48.4226 28.0759 54.6354 25.7894 60.1563L25.0523 61.9765C24.6311 63.0296 26.2256 63.6915 26.6769 62.6234C26.9026 62.0367 27.5043 60.6377 27.7149 60.066Z" fill="white"/>
</g>
<defs>
<clipPath id="clip0_57_3539">
<rect width="77.0212" height="77.0212" fill="white"/>
</clipPath>
</defs>
</svg>
