<svg width="29" height="29" viewBox="0 0 29 29" fill="none" xmlns="http://www.w3.org/2000/svg">
<path d="M4.69532 16.4317C4.47321 16.4324 4.25544 16.3701 4.06731 16.252C3.87919 16.134 3.72843 15.9649 3.63256 15.7646C3.53668 15.5642 3.49962 15.3408 3.52569 15.1202C3.55175 14.8996 3.63987 14.691 3.7798 14.5185L15.3998 2.54634C15.487 2.44573 15.6057 2.37774 15.7366 2.35354C15.8675 2.32933 16.0028 2.35034 16.1202 2.41313C16.2375 2.47591 16.3301 2.57674 16.3826 2.69905C16.4351 2.82137 16.4445 2.95791 16.4092 3.08626L14.1556 10.1522C14.0892 10.33 14.0669 10.5213 14.0906 10.7097C14.1143 10.8981 14.1834 11.0779 14.2919 11.2337C14.4004 11.3895 14.5451 11.5166 14.7135 11.6043C14.8819 11.6919 15.0691 11.7373 15.259 11.7367H23.4751C23.6972 11.7359 23.915 11.7982 24.1031 11.9163C24.2912 12.0344 24.442 12.2034 24.5379 12.4038C24.6338 12.6041 24.6708 12.8276 24.6447 13.0482C24.6187 13.2688 24.5306 13.4774 24.3906 13.6499L12.7706 25.622C12.6835 25.7226 12.5647 25.7906 12.4338 25.8148C12.3029 25.839 12.1677 25.818 12.0503 25.7552C11.9329 25.6924 11.8403 25.5916 11.7878 25.4693C11.7353 25.347 11.7259 25.2105 11.7612 25.0821L14.0148 18.0162C14.0812 17.8384 14.1036 17.647 14.0798 17.4587C14.0561 17.2703 13.987 17.0905 13.8785 16.9347C13.77 16.7789 13.6254 16.6517 13.4569 16.5641C13.2885 16.4765 13.1013 16.431 12.9115 16.4317H4.69532Z" stroke="white" stroke-width="2.34747" stroke-linecap="round" stroke-linejoin="round"/>
</svg>
