<svg width="512" height="512" viewBox="0 0 512 512" fill="none" xmlns="http://www.w3.org/2000/svg">
<path d="M195.884 254.688C208.816 257.099 219.446 263.565 227.776 274.086C236.105 284.607 240.269 296.663 240.269 310.252C240.269 322.527 237.201 333.377 231.063 342.802C225.145 352.008 216.487 359.241 205.09 364.501C193.692 369.762 180.212 372.392 164.649 372.392H65.686V142.902H160.375C175.938 142.902 189.308 145.423 200.487 150.464C211.884 155.505 220.433 162.52 226.132 171.506C232.05 180.493 235.009 190.685 235.009 202.083C235.009 215.453 231.392 226.632 224.159 235.619C217.145 244.605 207.72 250.962 195.884 254.688ZM111.715 237.591H153.8C164.759 237.591 173.198 235.18 179.116 230.358C185.034 225.317 187.993 218.193 187.993 208.987C187.993 199.781 185.034 192.658 179.116 187.617C173.198 182.575 164.759 180.055 153.8 180.055H111.715V237.591ZM158.074 334.911C169.252 334.911 177.91 332.281 184.048 327.02C190.404 321.76 193.582 314.307 193.582 304.663C193.582 294.8 190.294 287.128 183.719 281.648C177.143 275.949 168.266 273.1 157.087 273.1H111.715V334.911H158.074ZM395.316 372.392L344.683 282.963H322.984V372.392H276.954V142.902H363.095C380.849 142.902 395.973 146.08 408.467 152.437C420.961 158.574 430.276 167.013 436.413 177.753C442.77 188.274 445.948 200.11 445.948 213.262C445.948 228.386 441.564 242.085 432.797 254.359C424.029 266.415 410.988 274.744 393.672 279.347L448.578 372.392H395.316ZM322.984 248.441H361.451C373.945 248.441 383.26 245.482 389.398 239.564C395.535 233.427 398.604 224.988 398.604 214.248C398.604 203.727 395.535 195.617 389.398 189.918C383.26 184 373.945 181.041 361.451 181.041H322.984V248.441Z" fill="url(#paint0_linear_379_6)"/>
<defs>
<linearGradient id="paint0_linear_379_6" x1="254" y1="10.3921" x2="254" y2="503.392" gradientUnits="userSpaceOnUse">
<stop stop-color="#793FEE"/>
<stop offset="1" stop-color="#26FDFE"/>
</linearGradient>
</defs>
</svg>
