<svg width="22" height="22" viewBox="0 0 22 22" fill="none" xmlns="http://www.w3.org/2000/svg">
<path d="M14.086 18.4859V16.7253C14.086 15.7914 13.715 14.8958 13.0546 14.2354C12.3943 13.5751 11.4986 13.2041 10.5647 13.2041H5.28293C4.34905 13.2041 3.45341 13.5751 2.79306 14.2354C2.1327 14.8958 1.76172 15.7914 1.76172 16.7253V18.4859" stroke="white" stroke-width="1.76061" stroke-linecap="round" stroke-linejoin="round"/>
<path d="M7.92356 9.68305C9.86827 9.68305 11.4448 8.10655 11.4448 6.16184C11.4448 4.21713 9.86827 2.64062 7.92356 2.64062C5.97884 2.64062 4.40234 4.21713 4.40234 6.16184C4.40234 8.10655 5.97884 9.68305 7.92356 9.68305Z" stroke="white" stroke-width="1.76061" stroke-linecap="round" stroke-linejoin="round"/>
<path d="M19.3675 18.4857V16.7251C19.3669 15.9449 19.1072 15.187 18.6292 14.5704C18.1512 13.9538 17.482 13.5134 16.7266 13.3184" stroke="white" stroke-width="1.76061" stroke-linecap="round" stroke-linejoin="round"/>
<path d="M14.0859 2.75488C14.8434 2.94881 15.5147 3.38932 15.9941 4.00695C16.4735 4.62458 16.7338 5.3842 16.7338 6.16606C16.7338 6.94792 16.4735 7.70754 15.9941 8.32517C15.5147 8.9428 14.8434 9.3833 14.0859 9.57723" stroke="white" stroke-width="1.76061" stroke-linecap="round" stroke-linejoin="round"/>
</svg>
