<svg width="50" height="50" viewBox="0 0 50 50" fill="none" xmlns="http://www.w3.org/2000/svg">
<path d="M0 12.3242C0 5.51774 5.51775 0 12.3242 0H36.9727C43.7792 0 49.297 5.51775 49.297 12.3242V36.9727C49.297 43.7792 43.7792 49.297 36.9727 49.297H12.3242C5.51774 49.297 0 43.7792 0 36.9727V12.3242Z" fill="url(#paint0_linear_57_2940)"/>
<path d="M28.1699 32.5709V30.8103C28.1699 29.8764 27.799 28.9808 27.1386 28.3204C26.4783 27.66 25.5826 27.2891 24.6487 27.2891H19.3669C18.433 27.2891 17.5374 27.66 16.877 28.3204C16.2167 28.9808 15.8457 29.8764 15.8457 30.8103V32.5709" stroke="white" stroke-width="1.76061" stroke-linecap="round" stroke-linejoin="round"/>
<path d="M22.0075 23.768C23.9523 23.768 25.5288 22.1915 25.5288 20.2468C25.5288 18.3021 23.9523 16.7256 22.0075 16.7256C20.0628 16.7256 18.4863 18.3021 18.4863 20.2468C18.4863 22.1915 20.0628 23.768 22.0075 23.768Z" stroke="white" stroke-width="1.76061" stroke-linecap="round" stroke-linejoin="round"/>
<path d="M33.4515 32.5707V30.8101C33.4509 30.0299 33.1912 29.272 32.7132 28.6554C32.2352 28.0388 31.566 27.5984 30.8105 27.4033" stroke="white" stroke-width="1.76061" stroke-linecap="round" stroke-linejoin="round"/>
<path d="M28.1699 16.8398C28.9273 17.0338 29.5987 17.4743 30.0781 18.0919C30.5575 18.7095 30.8177 19.4692 30.8177 20.251C30.8177 21.0329 30.5575 21.7925 30.0781 22.4101C29.5987 23.0278 28.9273 23.4683 28.1699 23.6622" stroke="white" stroke-width="1.76061" stroke-linecap="round" stroke-linejoin="round"/>
<defs>
<linearGradient id="paint0_linear_57_2940" x1="0" y1="0" x2="49.297" y2="49.297" gradientUnits="userSpaceOnUse">
<stop stop-color="#2563EB" stop-opacity="0.2"/>
<stop offset="1" stop-color="#7C3AED" stop-opacity="0.2"/>
</linearGradient>
</defs>
</svg>
