<svg width="20" height="20" viewBox="0 0 20 20" fill="none" xmlns="http://www.w3.org/2000/svg">
<path d="M13.334 6.66699C14.6601 6.66699 15.9318 7.19378 16.8695 8.13146C17.8072 9.06914 18.334 10.3409 18.334 11.667V17.5003H15.0007V11.667C15.0007 11.225 14.8251 10.801 14.5125 10.4885C14.1999 10.1759 13.776 10.0003 13.334 10.0003C12.892 10.0003 12.468 10.1759 12.1555 10.4885C11.8429 10.801 11.6673 11.225 11.6673 11.667V17.5003H8.33398V11.667C8.33398 10.3409 8.86077 9.06914 9.79845 8.13146C10.7361 7.19378 12.0079 6.66699 13.334 6.66699Z" stroke="#B9B9B9" stroke-width="1.66667" stroke-linecap="round" stroke-linejoin="round"/>
<path d="M4.99935 7.5H1.66602V17.5H4.99935V7.5Z" stroke="#B9B9B9" stroke-width="1.66667" stroke-linecap="round" stroke-linejoin="round"/>
<path d="M3.33268 5.00033C4.25316 5.00033 4.99935 4.25413 4.99935 3.33366C4.99935 2.41318 4.25316 1.66699 3.33268 1.66699C2.41221 1.66699 1.66602 2.41318 1.66602 3.33366C1.66602 4.25413 2.41221 5.00033 3.33268 5.00033Z" stroke="#B9B9B9" stroke-width="1.66667" stroke-linecap="round" stroke-linejoin="round"/>
</svg>
